<svg width="78" height="79" viewBox="0 0 78 79" fill="none" xmlns="http://www.w3.org/2000/svg">
<path d="M39 0.698975L43.4079 4.89228L48.7181 1.92908L51.9467 7.08902L57.8255 5.54211L59.6721 11.3444L65.7501 11.311L66.0985 17.3912L71.9939 18.8734L70.8222 24.8493L76.1645 27.754L73.5464 33.2502L78 37.3948L74.1 42.066L77.3849 47.1901L72.4481 50.7428L74.358 56.5245L68.6945 58.7353L69.1094 64.8113L63.0751 65.5414L61.9689 71.5299L55.943 70.7335L53.3852 76.2582L47.7463 73.9852L43.8977 78.699L39 75.0923L34.1023 78.699L30.2537 73.9852L24.6148 76.2582L22.057 70.7335L16.0311 71.5299L14.9249 65.5414L8.89057 64.8113L9.3055 58.7353L3.64197 56.5245L5.55192 50.7428L0.615054 47.1901L3.9 42.066L0 37.3948L4.45355 33.2502L1.83546 27.754L7.17778 24.8493L6.0061 18.8734L11.9015 17.3912L12.2499 11.311L18.3279 11.3444L20.1745 5.54211L26.0533 7.08902L29.2819 1.92908L34.5921 4.89228L39 0.698975Z" fill="#FF9500"/>
<path d="M19.2953 34.959V32.9034L24.5707 27.9113C24.9875 27.5328 25.2936 27.1934 25.489 26.8932C25.6844 26.5931 25.8147 26.319 25.8798 26.071C25.9579 25.823 25.997 25.5946 25.997 25.3858C25.997 24.8376 25.8081 24.42 25.4304 24.1329C25.0657 23.8327 24.5251 23.6826 23.8087 23.6826C23.2356 23.6826 22.7015 23.7935 22.2065 24.0154C21.7246 24.2373 21.3143 24.5831 20.9756 25.053L18.6701 23.5651C19.1911 22.782 19.9205 22.1621 20.8584 21.7053C21.7962 21.2485 22.8774 21.0201 24.1018 21.0201C25.1178 21.0201 26.0035 21.1898 26.759 21.5291C27.5275 21.8554 28.1202 22.3187 28.537 22.9191C28.9669 23.5194 29.1818 24.2373 29.1818 25.0726C29.1818 25.5163 29.1232 25.9601 29.006 26.4038C28.9017 26.8345 28.6803 27.2913 28.3416 27.7742C28.016 28.2571 27.534 28.7988 26.8958 29.3991L22.5192 33.5299L21.9135 32.3749H29.6312V34.959H19.2953Z" fill="#0B0523"/>
<path d="M36.7988 35.194C35.6786 35.194 34.6756 34.9199 33.7898 34.3717C32.9041 33.8105 32.2072 33.0013 31.6992 31.9442C31.1912 30.887 30.9372 29.608 30.9372 28.107C30.9372 26.6061 31.1912 25.3271 31.6992 24.2699C32.2072 23.2127 32.9041 22.4101 33.7898 21.8619C34.6756 21.3007 35.6786 21.0201 36.7988 21.0201C37.932 21.0201 38.935 21.3007 39.8077 21.8619C40.6935 22.4101 41.3903 23.2127 41.8983 24.2699C42.4064 25.3271 42.6604 26.6061 42.6604 28.107C42.6604 29.608 42.4064 30.887 41.8983 31.9442C41.3903 33.0013 40.6935 33.8105 39.8077 34.3717C38.935 34.9199 37.932 35.194 36.7988 35.194ZM36.7988 32.5119C37.3328 32.5119 37.7952 32.3618 38.186 32.0616C38.5898 31.7614 38.9024 31.2851 39.1239 30.6325C39.3583 29.9799 39.4756 29.1381 39.4756 28.107C39.4756 27.076 39.3583 26.2341 39.1239 25.5816C38.9024 24.929 38.5898 24.4526 38.186 24.1524C37.7952 23.8523 37.3328 23.7022 36.7988 23.7022C36.2778 23.7022 35.8153 23.8523 35.4115 24.1524C35.0208 24.4526 34.7082 24.929 34.4737 25.5816C34.2523 26.2341 34.1415 27.076 34.1415 28.107C34.1415 29.1381 34.2523 29.9799 34.4737 30.6325C34.7082 31.2851 35.0208 31.7614 35.4115 32.0616C35.8153 32.3618 36.2778 32.5119 36.7988 32.5119Z" fill="#0B0523"/>
<path d="M46.1716 34.959L55.5111 21.255H57.8362L48.4967 34.959H46.1716ZM47.3635 28.6552C46.6992 28.6552 46.113 28.5051 45.605 28.2049C45.097 27.8917 44.6932 27.4545 44.3936 26.8932C44.1071 26.319 43.9638 25.6468 43.9638 24.8768C43.9638 24.1068 44.1071 23.4411 44.3936 22.8799C44.6932 22.3187 45.097 21.8815 45.605 21.5683C46.113 21.255 46.6992 21.0984 47.3635 21.0984C48.0278 21.0984 48.614 21.255 49.122 21.5683C49.63 21.8815 50.0273 22.3187 50.3138 22.8799C50.6004 23.4411 50.7437 24.1068 50.7437 24.8768C50.7437 25.6468 50.6004 26.319 50.3138 26.8932C50.0273 27.4545 49.63 27.8917 49.122 28.2049C48.614 28.5051 48.0278 28.6552 47.3635 28.6552ZM47.3635 27.0499C47.7933 27.0499 48.1385 26.8737 48.399 26.5213C48.6595 26.1558 48.7898 25.6077 48.7898 24.8768C48.7898 24.1459 48.6595 23.6043 48.399 23.2519C48.1385 22.8864 47.7933 22.7037 47.3635 22.7037C46.9467 22.7037 46.6015 22.8864 46.3279 23.2519C46.0674 23.6043 45.9372 24.1459 45.9372 24.8768C45.9372 25.5946 46.0674 26.1363 46.3279 26.5017C46.6015 26.8671 46.9467 27.0499 47.3635 27.0499ZM56.6443 35.1157C55.993 35.1157 55.4069 34.9656 54.8858 34.6654C54.3778 34.3522 53.9806 33.9149 53.694 33.3537C53.4074 32.7795 53.2641 32.1073 53.2641 31.3373C53.2641 30.5672 53.4074 29.9016 53.694 29.3404C53.9806 28.7792 54.3778 28.342 54.8858 28.0287C55.4069 27.7155 55.993 27.5589 56.6443 27.5589C57.3216 27.5589 57.9143 27.7155 58.4223 28.0287C58.9303 28.342 59.3276 28.7792 59.6142 29.3404C59.9007 29.9016 60.044 30.5672 60.044 31.3373C60.044 32.1073 59.9007 32.7795 59.6142 33.3537C59.3276 33.9149 58.9303 34.3522 58.4223 34.6654C57.9143 34.9656 57.3216 35.1157 56.6443 35.1157ZM56.6443 33.5103C57.0742 33.5103 57.4193 33.3341 57.6799 32.9818C57.9404 32.6163 58.0706 32.0682 58.0706 31.3373C58.0706 30.6194 57.9404 30.0778 57.6799 29.7124C57.4193 29.3469 57.0742 29.1642 56.6443 29.1642C56.2275 29.1642 55.8823 29.3469 55.6088 29.7124C55.3482 30.0648 55.218 30.6064 55.218 31.3373C55.218 32.0682 55.3482 32.6163 55.6088 32.9818C55.8823 33.3341 56.2275 33.5103 56.6443 33.5103Z" fill="#0B0523"/>
<path d="M27.1538 59.6655C26.0727 59.6655 25.0697 59.4893 24.1449 59.1369C23.2331 58.7845 22.4385 58.2885 21.7612 57.649C21.0969 57.0095 20.5759 56.259 20.1981 55.3976C19.8334 54.5362 19.651 53.5965 19.651 52.5785C19.651 51.5605 19.8334 50.6208 20.1981 49.7594C20.5759 48.898 21.1034 48.1475 21.7807 47.508C22.4581 46.8685 23.2526 46.3725 24.1644 46.0202C25.0762 45.6678 26.0662 45.4916 27.1343 45.4916C28.2154 45.4916 29.2054 45.6678 30.1042 46.0202C31.016 46.3725 31.804 46.8685 32.4683 47.508C33.1457 48.1475 33.6732 48.898 34.0509 49.7594C34.4287 50.6077 34.6176 51.5475 34.6176 52.5785C34.6176 53.5965 34.4287 54.5428 34.0509 55.4172C33.6732 56.2786 33.1457 57.0291 32.4683 57.6686C31.804 58.2951 31.016 58.7845 30.1042 59.1369C29.2054 59.4893 28.2219 59.6655 27.1538 59.6655ZM27.1343 56.9638C27.7465 56.9638 28.3066 56.8594 28.8146 56.6506C29.3356 56.4417 29.7915 56.1416 30.1823 55.75C30.5731 55.3585 30.8727 54.8951 31.0811 54.36C31.3025 53.8249 31.4132 53.2311 31.4132 52.5785C31.4132 51.9259 31.3025 51.3321 31.0811 50.797C30.8727 50.2619 30.5731 49.7986 30.1823 49.407C29.8046 49.0155 29.3552 48.7153 28.8342 48.5065C28.3131 48.2976 27.7465 48.1932 27.1343 48.1932C26.5221 48.1932 25.9555 48.2976 25.4344 48.5065C24.9264 48.7153 24.4771 49.0155 24.0863 49.407C23.6955 49.7986 23.3894 50.2619 23.168 50.797C22.9596 51.3321 22.8554 51.9259 22.8554 52.5785C22.8554 53.218 22.9596 53.8119 23.168 54.36C23.3894 54.8951 23.689 55.3585 24.0667 55.75C24.4575 56.1416 24.9134 56.4417 25.4344 56.6506C25.9555 56.8594 26.5221 56.9638 27.1343 56.9638Z" fill="#0B0523"/>
<path d="M39.9272 51.8933H46.4921V54.4383H39.9272V51.8933ZM40.1616 59.4305H36.9964V45.7265H47.3323V48.2715H40.1616V59.4305Z" fill="#0B0523"/>
<path d="M52.4059 51.8933H58.9708V54.4383H52.4059V51.8933ZM52.6404 59.4305H49.4751V45.7265H59.811V48.2715H52.6404V59.4305Z" fill="#0B0523"/>
</svg>
