<svg width="823" height="506" viewBox="0 0 823 506" fill="none" xmlns="http://www.w3.org/2000/svg">
<path d="M678.456 252.617C679.748 246.58 680.902 240.505 682.174 234.462C682.905 230.992 682.086 229.865 678.152 229.471C678.176 225.955 678.336 222.434 678.16 218.906C678.084 217.414 677.676 215.028 676.764 214.588C674.762 213.625 672.384 213.737 671.364 217.702C669.847 214.8 668.735 212.862 667.816 210.846C667.204 209.459 666.721 208.018 666.373 206.542C665.701 203.824 663.765 202.904 660.886 202.293C659.115 209.696 657.376 216.965 655.685 224.032C654.856 223.573 653.613 222.885 652.095 222.045C651.427 231.771 652.84 241.529 656.239 250.662C657.916 255.883 661.578 260.231 666.429 262.761C667.201 263.13 668.275 263.897 668.381 264.556C669.43 271.117 671.785 278.004 670.913 284.202C669.243 296.066 660.647 303.57 651.513 310.146C651.117 310.431 649.411 309.671 648.89 308.981C642.778 301.162 633.887 296.019 624.08 294.631C614.111 292.843 603.972 292.547 593.906 291.697C586.911 291.107 580.055 291.005 573.631 286.365C568.05 282.81 563.396 277.968 560.059 272.242C556.124 264.646 552.255 256.997 548.826 249.192C545.188 240.913 542.099 232.425 538.513 223.38C540.037 223.683 540.476 223.719 540.887 223.859C552.78 228.397 565.579 230.025 578.225 228.61C582.738 228.272 587.274 228.45 591.747 229.141C597.733 229.699 603.464 232.105 609.716 231.56C617.848 230.852 624.566 226.949 631.982 224.677C632.449 224.534 632.885 223.319 632.723 222.73C632.565 222.377 632.331 222.062 632.04 221.809C631.748 221.555 631.404 221.368 631.033 221.261C628.656 220.984 626.296 220.581 623.961 220.055C620.193 218.888 616.532 217.4 613.016 215.607C608.306 213.103 603.83 210.106 599.274 207.284C598.485 206.795 597.871 205.938 597.051 205.575C591.208 202.982 585.428 200.15 579.445 198.018C571.96 195.212 563.754 195.007 556.14 197.437C548.264 200.063 540.917 204.031 532.847 207.632C532.156 207.014 530.915 205.944 529.72 204.824C528.356 203.217 526.815 201.769 525.126 200.509C519.325 197.033 512.439 195.857 505.817 197.21C502.46 197.943 501.674 196.303 500.762 194.072C498.123 187.267 493.2 181.6 486.842 178.047C481.864 175.063 476.341 173.111 470.599 172.306C464.857 171.5 459.012 171.858 453.41 173.358C447.93 175.356 442.598 177.74 437.454 180.494C428.642 184.661 420.722 190.507 414.133 197.706C408.745 203.423 403.51 209.288 397.999 214.882C394.396 218.538 394.227 218.374 396.964 222.962C397.068 223.137 397.324 223.228 397.212 223.149C408.114 220.525 418.767 217.872 429.477 215.408C439.948 212.999 450.605 211.172 460.94 208.371C470.974 205.823 481.265 204.428 491.613 204.213C484.047 206.821 483.073 207.107 480.463 217.276C479.875 221.487 477.858 225.366 474.753 228.26C473.55 229.193 472.863 229.699 471.292 228.499C468.84 226.788 465.914 225.893 462.928 225.941C459.942 225.988 457.046 226.975 454.649 228.763C445.723 236.349 439.374 246.536 436.483 257.909C434.361 265.605 440.222 277.233 446.475 280.557C451.584 283.273 457.347 284.609 462.489 287.272C465.578 288.805 468.942 289.7 472.382 289.905C475.822 290.11 479.268 289.621 482.516 288.466C490.033 285.704 497.371 282.474 504.486 278.793C505.326 281.845 505.718 285.004 505.651 288.17C503.911 298.518 501.765 308.784 499.382 318.964C497.051 329.581 496.424 340.503 497.525 351.319C498.029 357.083 501.007 362.866 503.24 368.516C504.295 372.83 504.681 377.281 504.386 381.712C503.431 395.528 502.356 409.328 501.557 423.163C501.072 431.573 500.957 440.033 500.853 448.485C500.842 449.303 502.075 450.933 502.74 450.984C507.317 451.337 511.903 451.467 516.467 451.424C516.994 451.382 517.502 451.206 517.943 450.913C518.383 450.619 518.741 450.217 518.983 449.746C520.246 444.559 521.427 439.331 522.251 434.031C522.817 430.393 522.604 426.588 523.019 422.909C524.097 413.327 525.297 403.767 526.522 394.213C526.872 391.483 527.473 388.803 527.959 386.099L529.42 386.412C528.757 395.087 528.253 403.789 527.38 412.428C526.71 419.047 525.338 425.548 524.726 432.174C524.288 436.912 524.707 441.781 524.528 446.568C524.366 450.876 524.712 451.481 528.918 451.513C532.916 451.543 536.924 451.519 540.881 451.2C541.981 451.111 543.649 450.063 543.802 449.159C544.95 442.359 545.813 435.49 546.707 428.632C547.685 421.132 548.491 413.596 549.588 406.121C550.205 401.91 551.608 397.849 552.005 393.614C552.345 389.98 552.75 389.145 556.302 389.686C564.638 390.9 573.105 390.912 581.445 389.723C585.203 389.218 588.962 388.719 593.673 388.089C592.608 391.028 591.957 394.1 591.737 397.219C592.048 404.791 592.309 412.361 592.519 419.93C592.739 427.745 593.171 435.585 592.942 443.357C592.848 446.511 593.879 447.774 596.603 447.959C600.506 448.225 604.417 448.281 608.305 448.213C608.765 448.168 609.206 448.005 609.585 447.739C609.963 447.473 610.267 447.113 610.466 446.695C611.701 441.211 612.639 435.664 613.275 430.078C614.615 414.509 615.609 398.888 616.709 383.716C617.9 385.39 619.256 387.161 620.456 389.026C621.572 390.385 622.406 391.953 622.91 393.639C623.865 399.515 624.462 405.444 624.698 411.393C624.872 421.33 624.341 431.228 624.377 441.161C624.4 447.275 624.942 450.794 633.006 450.481C633.354 450.497 633.695 450.592 634.002 450.757C637.749 452.506 641.044 450.216 644.604 450.205C645.287 450.203 646.283 448.678 646.397 447.718C646.825 444.128 647.033 440.491 647.165 436.855C647.426 429.677 647.491 422.478 647.809 415.307C648.115 408.393 648.707 401.512 649.041 394.601C649.362 390.176 650.679 385.881 652.894 382.04C656.413 375.361 659.222 368.329 661.274 361.06C662.81 355.499 663.346 349.707 662.856 343.957C661.919 337.957 660.426 332.058 658.398 326.336C657.683 323.841 656.522 321.446 655.492 318.826C656.722 318.691 657.923 318.36 659.048 317.845C666.162 312.537 672.755 306.74 676.383 298.266C679.455 291.093 682.547 283.918 680.605 275.514C679.302 269.877 677.744 264.281 676.476 258.639C676.423 257.532 676.655 256.43 677.15 255.439C677.639 254.524 678.075 253.582 678.456 252.617ZM546.535 222.433C545.38 222.199 544.335 221.59 543.56 220.7C547.69 221.809 551.819 222.918 555.948 224.027C552.809 223.51 549.664 223.031 546.535 222.433ZM580.194 224.816C574.995 225.101 569.87 226.099 564.663 226.149C561.857 225.828 559.104 225.147 556.47 224.125C562.38 223.574 568.351 223.301 574.177 222.383C580.37 221.388 586.711 221.936 592.643 223.98C593.015 224.163 593.34 224.432 593.589 224.765C589.266 224.765 584.703 224.569 580.194 224.816ZM597.779 222.263L597.071 222.441C596.216 220.773 595.361 219.105 594.284 217.005H598.044C597.953 218.829 597.866 220.546 597.779 222.263ZM536.173 211.143C543.549 206.961 550.265 201.598 559.126 200.074C569.381 198.644 579.814 200.818 588.653 206.227C597.722 211.159 606.746 216.182 615.83 221.085C617.773 222.134 619.887 222.835 622.896 224.109C619.548 225.158 616.964 225.967 614.664 226.687C613.695 224.613 612.93 222.976 612.165 221.339L611.024 221.604C611.115 222.917 611.206 224.23 611.298 225.544C607.918 226.268 607.918 226.268 604.808 221.227C604.212 222.402 603.706 223.403 603.199 224.403C599.564 222.916 599.35 221.008 602.483 218.042C601.47 216.264 599.883 214.886 597.984 214.137C596.084 213.388 593.987 213.312 592.039 213.923C590.571 214.39 588.823 214.099 587.328 214.518C586.93 214.695 586.579 214.964 586.303 215.302C586.027 215.64 585.834 216.038 585.739 216.464C585.633 216.99 586.5 217.776 587.219 218.892C585.592 219.138 583.935 219.092 582.324 218.756C581.751 218.402 581.257 217.933 580.871 217.379C580.484 216.826 580.215 216.199 580.08 215.537C579.654 213.234 579.57 211.307 576.626 213.259C576.048 213.642 574.957 213.271 574.343 213.63C573.479 214.136 572.194 214.971 572.214 215.713C572.3 218.97 571.114 220.478 566.714 219.51L569.825 214.46C568.587 214.255 567.334 214.152 566.079 214.154C564.075 214.332 561.972 215.977 560.371 211.826C559.771 214.079 559.483 215.162 559.014 216.923C558.702 216.131 558.309 215.375 557.84 214.666C557.367 214.252 556.844 213.899 556.285 213.615C556.124 215.427 555.903 217.235 555.912 219.058C555.912 219.212 557.834 219.913 558.212 219.598C560.106 218.014 560.676 219.402 561.442 220.951C554.571 222.187 553.112 217.272 551.957 211.999L550.98 212.094C550.449 213.19 549.918 214.285 549.035 216.107C547.942 214.446 547.032 213.062 546.122 211.68C541.799 211.959 543.752 214.824 544.028 217.234C542.32 215.234 540.613 213.235 538.281 210.505C538.05 212.268 537.863 213.698 537.602 215.69C537.198 215.473 535.837 215.115 535.748 214.617C535.541 213.458 535.512 211.518 536.173 211.143ZM416.542 212.905C417.348 210.249 418.58 209.344 420.824 209.815C421.786 210.017 422.757 210.149 423.725 210.311C421.516 211.109 419.304 211.908 416.542 212.905ZM440.875 203.996C440.679 203.422 440.482 202.848 440.286 202.273C442.306 201.999 444.341 201.784 446.338 201.416C446.993 201.171 447.615 200.844 448.187 200.442C449.577 199.769 450.984 199.127 452.383 198.472C452.599 198.969 452.815 199.467 453.03 199.964C448.979 201.308 444.927 202.652 440.875 203.996ZM453.211 203.559C461.971 198.641 479.066 195.012 487.427 200.567L453.211 203.559ZM482.099 194.709C481.499 194.461 481.189 193.176 480.897 192.327C480.637 191.428 480.428 190.514 480.272 189.591C479.509 190.182 478.791 190.829 478.124 191.527C477.786 192.064 477.529 192.648 477.364 193.26C475.802 193.13 474.287 193.004 472.731 192.874C472.212 191.913 471.637 190.85 470.547 188.833L468.933 194.555H464.1C463.657 193.692 463.152 192.708 462.486 191.407C461.008 193.925 459.678 196.192 457.879 199.258C456.078 196.601 454.904 194.799 453.641 193.059C453.36 192.672 452.692 192.226 452.34 192.301C452.105 192.398 451.899 192.552 451.741 192.751C451.582 192.949 451.477 193.185 451.434 193.435C451.416 194.63 451.484 195.825 451.637 197.01C449.218 196.613 447.128 196.27 444.581 195.853C441.075 200.679 439.892 201.241 437.557 198.709C435.802 200.901 435.802 200.901 437.651 204.661C433.452 207.352 433.453 207.326 430.821 202.546C430.514 201.987 429.616 201.724 428.992 201.324C428.693 201.938 428.511 202.604 428.456 203.286C428.665 204.07 428.957 204.83 429.328 205.553C429.555 206.203 429.691 206.879 429.961 207.895C427.898 208.694 425.85 209.488 423.802 210.282C424.847 208.53 425.893 206.773 427.29 204.427C424.569 204.912 421.89 205.609 419.278 206.514C416.764 207.6 414.646 209.473 412.239 210.808C409.897 212.107 407.408 213.159 404.671 214.469C405.29 213.139 406.027 211.869 406.874 210.673C417.105 198.694 429.382 188.643 443.13 180.99C452.475 175.627 463.542 174.148 473.96 176.869C479.585 178.183 484.802 180.86 489.156 184.667C493.51 188.473 496.867 193.293 498.933 198.704C496.935 198.925 494.918 198.897 492.928 198.621C489.245 197.529 485.63 196.223 482.099 194.709ZM484.814 213.97C485.134 212.433 485.911 211.029 487.041 209.942C488.172 208.856 489.604 208.138 491.149 207.884C491.662 207.735 492.201 207.7 492.729 207.78C493.257 207.861 493.761 208.056 494.207 208.351C494.653 208.647 495.029 209.036 495.31 209.492C495.591 209.947 495.77 210.459 495.834 210.991C496.353 213.977 496.552 217.011 496.429 220.039C496.337 222.039 495.988 224.018 495.391 225.928C494.978 226.886 494.224 227.655 493.275 228.085C494.205 224.603 496.144 220.836 492.976 217.932C489.592 214.829 486.506 218.229 483.23 219.471C483.854 217.666 484.382 215.83 484.814 213.97ZM489.626 281.222C483.66 282.922 477.576 284.174 471.425 284.967L471.102 283.826C475.438 282.199 479.788 280.602 484.1 278.919C484.954 278.597 485.711 278.061 486.301 277.364C486.491 277.125 485.922 275.761 485.528 275.643C484.6 275.338 483.602 275.32 482.664 275.591C478.088 277.598 473.407 279.357 468.642 280.859C464.296 282.126 459.678 282.103 455.344 280.793C451.011 279.484 447.148 276.943 444.223 273.478C442.562 271.76 441.341 269.662 440.665 267.366C439.989 265.07 439.879 262.644 440.343 260.296C442.432 250.94 446.998 242.323 453.559 235.353L453.583 235.47C455.772 233.733 458.437 232.709 461.222 232.536C464.234 232.088 470.209 235.449 470.216 235.49C473.908 238.725 477.435 241.859 481.025 244.884C481.86 245.677 482.923 246.186 484.063 246.337C487.933 246.313 491.775 245.942 495.639 245.798C500.812 245.605 504.789 249.013 508.88 251.569C511.556 253.242 511.652 260.294 509.671 263.481C505.217 271.527 498.139 277.792 489.626 281.222ZM517.369 432.523C514.887 432.873 512.377 432.978 509.875 432.837C507.944 432.638 506.165 431.698 504.909 430.213C503.615 427.908 505.098 426.17 507.811 425.865L504.312 421.922C506.306 421.272 507.606 420.848 508.906 420.425L508.756 419.529C507.759 419.013 506.763 418.498 505.721 417.959C504.541 414.009 508.615 413.974 510.355 411.941C509.466 410.581 508.625 409.295 507.587 407.706L506.057 410.122L505.258 409.674C506.168 408.283 506.766 406.338 508.079 405.661C509.305 405.029 511.29 405.744 512.94 405.866L513.402 404.896C512.429 404.274 511.462 403.198 510.48 403.114C507.131 402.828 506.262 401.192 507.059 397.896C508.84 398.065 510.603 398.233 512.492 398.413C513.575 395.644 511.148 395.622 509.658 394.899C510.153 394.066 510.709 393.271 511.322 392.521C511.938 391.855 512.898 391.49 513.444 390.782C514.016 390.039 514.842 388.812 514.56 388.208C513.652 386.668 512.59 385.226 511.389 383.903C510.777 385.058 510.241 386.069 509.333 387.782C508.651 386.215 508.337 384.513 508.416 382.805C508.495 381.097 508.964 379.431 509.787 377.934C514.425 380.589 519.01 383.213 523.749 385.926C521.678 401.053 519.54 416.665 517.369 432.523ZM507.224 393.932C507.304 392.518 507.556 391.12 507.973 389.768C508.173 389.695 508.385 389.663 508.596 389.675C508.808 389.687 509.015 389.742 509.205 389.837C509.582 390.241 509.806 390.765 509.836 391.317C509.856 392.513 509.712 393.699 509.631 394.89C508.773 394.566 507.221 394.185 507.224 393.932ZM545.568 409.153C544.724 416.324 543.834 423.488 542.79 430.617C542.703 431.208 541.335 431.837 540.486 431.894C537.641 432.084 534.759 431.986 531.898 432.071C529.429 432.143 528.465 431.244 529.104 428.707C529.303 427.432 529.365 426.139 529.289 424.851C530.368 424.52 531.447 424.534 531.767 424.032C533.219 421.756 531.398 420.614 529.56 419.68C530.117 417.298 529.275 414.171 533.133 414.282C533.181 414.283 533.394 412.344 533.157 412.236C529.876 410.727 531.308 408.514 531.612 406.238H536.584L536.743 405.193C535.652 404.746 534.588 404.235 533.556 403.663C532.869 403.237 531.882 402.499 531.869 401.939C531.905 401.516 532.039 401.106 532.261 400.744C532.483 400.382 532.787 400.077 533.148 399.854C534.865 398.918 536.749 398.266 538.586 397.493L535.262 392.617C534.753 392.876 534.039 393.239 533.062 393.736C533.006 391.898 533.214 390.061 533.679 388.283C534.018 387.479 535.883 386.886 536.982 387.06C540.581 387.63 544.145 388.595 547.726 389.409C547.019 395.921 546.346 402.547 545.568 409.153ZM612.413 389.012C611.37 400.051 610.287 411.084 609.163 422.109C609.177 423.24 608.964 424.361 608.538 425.407C607.686 426.609 606.713 427.718 605.634 428.72L604.604 428.135C604.765 428.877 604.927 429.618 605.227 430.998C602.572 430.574 599.948 429.977 597.371 429.209C596.706 428.973 596.169 427.102 596.157 426.016C596.072 418.043 596.136 410.079 596.152 402.535C598.882 401.876 601.714 401.194 604.546 400.511L604.537 399.152C603.098 398.849 601.658 398.546 599.781 398.151C599.742 397.853 599.637 397.046 599.481 395.848C600.497 396.389 601.581 396.79 602.704 397.039C603.427 397.078 604.138 396.418 604.856 396.069C604.347 395.357 603.73 393.998 603.347 394.036C599.993 394.371 598.777 392.595 598.995 389.119L597.709 389.438C597.367 392.099 597.024 394.76 596.682 397.421L595.946 397.353C596.294 394.213 596.566 391.056 597.07 387.951C597.15 387.457 598.223 387.067 598.92 386.858C603.38 385.523 607.862 384.252 612.623 382.877C612.569 384.623 612.619 386.838 612.413 389.012ZM611.766 377.225C601.211 382.353 589.819 385.524 578.14 386.585C569.954 386.87 561.758 386.576 553.613 385.706C547.411 385.374 541.259 384.401 535.256 382.803C528.13 380.666 521.234 377.822 514.67 374.312C510.942 372.322 508.857 367.979 506.291 364.345C503.489 360.055 502.061 355.007 502.2 349.88C501.852 343.789 501.147 337.664 501.299 331.621C501.769 328.086 502.564 324.604 503.677 321.217C504.666 316.649 505.433 312.017 506.492 307.472C506.98 305.677 507.829 304.002 508.987 302.549C511.922 309.241 513.131 316.567 512.504 323.852C512.386 329.278 512.787 334.749 512.802 340.19C512.835 346.299 513.859 352.362 515.833 358.14C516.633 360.914 518.274 363.369 520.528 365.166C522.782 366.962 525.536 368.01 528.41 368.165C536.714 368.539 545.021 369.047 553.324 369.406C554.669 369.464 555.99 368.866 557.34 368.882C563.417 368.955 569.522 369.371 575.573 369.212C580.559 369.081 585.486 368.322 590.437 367.83C598.241 367.055 606.043 366.27 614.218 365.452C614.228 367.619 614.397 369.782 614.725 371.924C615.002 373.02 614.85 374.181 614.299 375.167C613.749 376.153 612.842 376.89 611.766 377.225ZM656.4 364.276C656.491 368.633 652.215 368.309 648.768 368.967C648.919 369.351 649.07 369.735 649.22 370.119L654.017 371.531C653.582 372.843 653.149 374.147 652.748 375.36H645.611L645.335 376.63C646.897 377.221 648.46 377.812 650.178 378.462C645.045 385.396 644.842 394.064 644.32 402.69C643.748 412.166 643.069 421.638 641.943 431.019C641.787 432.316 638.921 433.401 637.084 433.991C635.405 434.407 633.652 434.425 631.965 434.045C630.613 433.803 628.376 433.038 628.207 432.257C627.971 430.111 628.006 427.944 628.313 425.807L629.468 426.023C629.36 426.552 629.332 427.094 629.383 427.631C629.624 428.421 629.918 429.194 630.264 429.943C630.859 429.422 631.87 428.996 631.973 428.361C632.341 426.108 632.399 423.784 632.633 420.722C630.896 421.871 629.957 422.492 628.576 423.405C628.398 420.856 628.253 418.765 628.102 416.611C628.484 417.69 628.873 418.794 629.302 420.009C631.552 418.52 632.195 413.108 630.569 408.916C629.814 410.383 629.263 411.453 628.712 412.523C627.366 408.016 627.761 407.049 631.602 405.47C629.504 399.341 626.802 393.438 623.535 387.848C619.789 383.061 617.907 377.071 618.239 370.994C618.258 368.728 618.547 366.475 618.457 364.209C618.381 362.312 617.508 360.76 615.224 360.943C609.476 361.404 603.745 361.989 597.99 362.408C588.562 363.093 579.122 363.693 569.685 364.315C565.258 364.606 560.837 364.956 556.396 365.11C553.144 365.222 549.865 365.161 546.595 364.993C542.777 364.796 538.91 364.009 535.144 364.177C532.306 364.325 529.472 363.812 526.864 362.678C524.256 361.544 521.946 359.82 520.113 357.641C519.503 356.951 519.074 356.12 518.864 355.223C517.132 345.556 516.318 335.746 516.433 325.925C516.142 318.118 518.176 310.118 514.405 302.404C513.008 300.065 511.462 297.819 509.776 295.681C509.339 295.042 509.086 294.295 509.044 293.522C509.038 291.245 509.365 288.983 509.255 286.708C509.244 283.638 508.904 280.578 508.241 277.581C507.958 276.749 507.901 275.857 508.076 274.995C508.251 274.134 508.652 273.335 509.238 272.681C513.365 267.628 515.59 261.279 515.524 254.746C515.452 253.091 514.876 251.498 513.873 250.181C512.87 248.865 511.489 247.889 509.917 247.385C507.664 246.423 505.387 245.509 503.185 244.428C498.762 242.436 493.863 241.755 489.067 242.465C487.83 242.768 486.532 242.708 485.327 242.295C484.122 241.881 483.061 241.131 482.267 240.132C480.977 238.73 479.603 237.41 478.151 236.178C476.968 235.005 475.088 234.155 476.493 231.933C477.701 230.022 478.866 228.195 481.531 229.252C486.247 231.635 491.611 232.401 496.803 231.433C496.969 231.424 497.135 231.454 497.289 231.519C497.442 231.584 497.579 231.683 497.688 231.809C500.271 235.365 504.492 235.694 507.929 237.552C512.466 240.005 516.212 239.448 517.752 234.965C519.884 228.995 521.255 222.779 521.831 216.464C522.245 211.086 517.125 208.082 511.657 208.879C505.835 209.727 503.528 213.99 501.111 218.341C500.849 218.752 500.675 219.213 500.598 219.695C499.962 215.25 499.323 210.784 498.593 205.676C503.832 201.409 511.325 200.956 518.606 201.802C524.187 202.45 527.535 207.474 529.811 212.621C532.325 218.304 534.918 223.962 537.21 229.721C538.232 232.289 538.434 235.122 539.303 237.755C541.174 244.349 543.459 250.817 546.145 257.12C550.176 266.222 555.399 274.744 561.677 282.459C566.86 288.72 573.973 293.073 581.894 294.829C587.202 295.569 592.559 295.891 597.917 295.795C601.897 296.059 605.878 296.525 609.857 296.953C614.189 297.419 618.535 297.772 622.846 298.485C629.06 299.671 634.77 302.718 639.225 307.225C636.465 308.284 637.301 309.385 638.861 311.349C641.509 314.685 646.387 316.645 646.262 321.918C646.253 322.263 647.964 323.148 648.79 323.102C649.95 323.037 652.087 324.29 651.997 321.629C647.69 320.836 647.396 317.227 646.248 314.218L647.215 313.606C648.821 316.269 650.427 318.931 652.034 321.594C653.015 323.925 653.996 326.256 655.385 329.556C653.394 328.237 652.237 327.471 650.656 326.424C651.202 332.426 650.154 338.396 654.98 341.821C654.964 344.282 655.062 345.873 654.919 347.426C654.705 349.765 654.202 352.063 654.075 354.409C654.141 355.376 654.501 356.301 655.105 357.057C655.736 357.761 656.45 358.384 657.232 358.914C656.475 359.602 655.66 360.222 654.796 360.767C653.913 361.136 652.995 361.418 652.057 361.607C652.022 362.007 651.988 362.406 651.953 362.805L656.4 364.276ZM508.257 224.086C504.528 223.276 503.767 224.232 500.311 229.723C501.102 227.38 501.736 224.96 502.726 222.717C503.759 220.376 505.112 218.193 506.367 215.966C507.015 214.78 507.971 213.792 509.135 213.108C510.298 212.425 511.625 212.071 512.973 212.084C513.628 212.013 514.291 212.075 514.922 212.265C515.554 212.455 516.141 212.77 516.649 213.191C517.158 213.612 517.577 214.13 517.883 214.716C518.189 215.302 518.375 215.943 518.43 216.602C519.057 222.36 517.765 228.163 514.756 233.106C513.995 234.57 512.899 236.635 510.877 235.424C512.239 233.025 513.147 230.393 513.555 227.662C513.511 226.478 510.242 224.516 508.257 224.086ZM656.52 331.53C656.72 334.403 656.867 336.51 657.013 338.616C656.383 338.666 655.752 338.717 655.122 338.767C654.62 336.938 654.24 335.078 653.985 333.199C653.948 332.767 655.282 332.312 656.52 331.53ZM676.337 287.796C675.76 289.468 675.087 291.106 674.32 292.7C673.717 298.253 669.637 301.591 666.545 305.506C664.891 307.4 663.096 309.163 661.173 310.781C664.838 305.092 669.1 298.476 673.361 291.86C674.043 287.684 674.45 283.468 674.582 279.238C674.462 274.537 673.439 269.797 673.113 265.053C675.073 272.57 678.576 279.98 676.337 287.796Z" fill="black"/>
<path d="M674.681 478.086L668.04 476.549C662.102 475.168 656.132 478.909 654.762 484.879C653.393 490.844 657.122 496.792 663.093 498.156L669.615 499.672C670.47 499.872 671.32 499.964 672.159 499.964C677.187 499.964 681.739 496.522 682.941 491.412C684.338 485.453 680.641 479.482 674.681 478.086Z" fill="black"/>
<path d="M636.304 469.767L634.973 469.501C628.937 468.305 623.135 472.229 621.95 478.227C620.764 484.235 624.667 490.064 630.675 491.25L631.952 491.504C632.689 491.65 633.419 491.721 634.139 491.721C639.314 491.721 643.947 488.078 644.997 482.811C646.199 476.809 642.307 470.968 636.304 469.767Z" fill="black"/>
<path d="M813.843 463.426C793.224 459.435 771.94 456.109 750.103 453.227C742.565 452.23 735.138 451.343 727.71 450.346V450.456C716.625 449.237 705.429 448.017 694.122 447.019C694.122 447.019 664.857 444.803 652.109 443.916C651.998 443.916 651.998 443.916 651.998 443.916H651C649.559 443.805 648.34 443.694 647.453 443.694H647.121C572.295 439.592 499.576 441.034 433.065 445.357C356.354 441.367 283.857 442.697 221.89 446.133C221.89 446.133 197.281 446.576 197.059 447.684C188.302 448.35 179.766 449.015 171.563 449.68L149.393 451.676L122.345 454.225C122.123 454.225 121.901 454.114 121.679 454.225C118.465 454.557 115.361 454.89 112.257 455.223L111.259 455.333C94.5205 457.107 79.3337 458.992 66.2532 460.766V460.211C51.8425 462.317 44.0827 463.758 44.0827 463.758C22.0232 467.084 9.27485 469.412 9.0536 469.412C3.06713 470.52 -0.923395 476.285 0.184859 482.27C1.18283 487.703 5.83845 491.36 11.0489 491.36C11.714 491.36 12.49 491.36 13.1551 491.25C13.4873 491.139 51.0665 484.266 111.37 477.615L161.365 472.737C184.311 470.742 209.585 468.969 236.744 467.639C235.303 467.86 233.751 468.082 232.421 468.304C226.324 469.301 222.223 474.955 223.22 481.051C224.107 486.483 228.763 490.363 234.195 490.363C234.749 490.363 235.303 490.252 235.968 490.141C288.845 481.495 356.908 472.626 433.175 467.528C487.826 470.41 544.471 476.063 600.784 485.708C601.45 485.818 602.004 485.929 602.669 485.929C607.989 485.929 612.645 482.049 613.532 476.728C614.53 470.853 610.761 465.421 605.107 464.091C620.183 464.534 635.37 465.199 650.667 466.086C650.667 466.086 685.919 468.525 692.127 469.08C733.031 472.737 772.605 478.169 809.741 485.153C810.406 485.264 811.182 485.375 811.847 485.375C817.057 485.375 821.713 481.605 822.711 476.285C823.82 470.299 819.829 464.534 813.843 463.426Z" fill="black"/>
<path d="M204.516 473.047L200.581 473.756C194.557 474.849 190.562 480.619 191.655 486.643C192.624 491.996 197.295 495.747 202.551 495.747C203.206 495.747 203.872 495.693 204.543 495.569L208.435 494.871C214.459 493.788 218.47 488.024 217.387 481.999C216.305 475.969 210.513 471.953 204.516 473.047Z" fill="black"/>
<path d="M168.775 479.819C155.654 482.471 148.542 484.111 148.542 484.111C142.577 485.491 138.859 491.445 140.239 497.41C141.419 502.536 145.982 506 151.027 506C151.855 506 152.694 505.908 153.533 505.719C153.619 505.697 160.515 504.106 173.17 501.545C179.173 500.333 183.054 494.487 181.836 488.484C180.623 482.482 174.815 478.601 168.775 479.819Z" fill="black"/>
<path d="M118.96 71.3574C128.735 61.6253 135.658 61.6253 145.434 71.3574C147.512 73.425 150.321 74.5888 153.255 74.5888C159.528 74.5888 164.47 71.6064 168.833 68.9758C176.248 64.5157 179.003 62.8594 187.55 71.3574C189.715 73.5116 192.541 74.5888 195.371 74.5888C198.218 74.5888 201.06 73.5008 203.225 71.3249C207.545 66.9839 207.534 59.969 203.193 55.6497C182.381 34.9189 165.504 45.1003 157.385 49.9879C156.903 50.2802 156.346 50.6158 155.794 50.946C138.76 37.5333 119.929 39.0921 103.317 55.6497C98.9762 59.969 98.9654 66.9893 103.285 71.3249C107.604 75.6713 114.63 75.6713 118.96 71.3574Z" fill="black"/>
<path d="M234.781 29.4193C244.54 19.6872 251.463 19.6764 261.255 29.4193C263.328 31.4869 266.143 32.6507 269.076 32.6507C275.35 32.6507 280.297 29.6682 284.66 27.0377C292.059 22.5776 294.83 20.9159 303.377 29.4193C305.542 31.5735 308.367 32.6507 311.198 32.6507C314.045 32.6507 316.887 31.5627 319.052 29.3868C323.371 25.0458 323.361 18.0309 319.02 13.7115C298.213 -7.00293 281.331 3.16758 273.212 8.04985C272.73 8.34214 272.167 8.67773 271.62 9.0079C254.581 -4.40482 235.739 -2.84055 219.139 13.7115C214.798 18.0309 214.787 25.0512 219.106 29.3868C223.431 33.7332 230.446 33.744 234.781 29.4193Z" fill="black"/>
<path d="M548.557 41.999C555.469 35.1194 559.685 35.1086 566.608 41.999C568.687 44.0666 571.496 45.2304 574.43 45.2304C580.064 45.2304 584.487 42.5619 588.043 40.4239C593.796 36.9435 594.684 36.4131 600.303 41.999C604.649 46.3238 611.664 46.3021 615.978 41.9665C620.297 37.6309 620.286 30.6106 615.945 26.2913C598.072 8.48344 583.031 17.5551 576.595 21.4361C562.43 11.1248 546.516 12.7541 532.914 26.2913C528.573 30.6106 528.562 37.6255 532.882 41.9665C537.206 46.3075 544.221 46.3292 548.557 41.999Z" fill="black"/>
<path d="M598.359 96.9653C586.587 89.0898 573.488 90.7515 562.246 101.934C557.905 106.254 557.894 113.274 562.213 117.609C566.538 121.95 573.553 121.972 577.888 117.642C582.392 113.16 584.216 113.16 588.719 117.642C590.792 119.71 593.607 120.873 596.541 120.873C601.629 120.873 605.574 118.492 608.459 116.754C609.482 116.137 611.198 115.103 611.648 115.006C611.648 115.006 612.844 115.304 615.198 117.642C619.539 121.967 626.554 121.945 630.873 117.609C635.193 113.268 635.177 106.254 630.841 101.934C616.692 87.8449 604.194 93.5986 598.359 96.9653Z" fill="black"/>
<path d="M670.067 80.8992C672.898 80.8992 675.723 79.8221 677.888 77.6678C687.62 67.9899 694.836 68.0007 704.546 77.6678C706.625 79.7355 709.434 80.8992 712.367 80.8992C718.652 80.8992 723.615 77.906 727.994 75.27C735.447 70.772 738.235 69.0941 746.846 77.6678C751.187 81.9926 758.202 81.9709 762.522 77.6354C766.841 73.2944 766.83 66.2795 762.489 61.9601C741.596 41.159 724.67 51.3782 716.541 56.2822C716.053 56.5799 715.48 56.9263 714.911 57.2619C697.834 43.8004 678.928 45.3539 662.246 61.9601C657.905 66.2795 657.894 73.2998 662.213 77.6354C664.378 79.8113 667.22 80.8992 670.067 80.8992Z" fill="black"/>
<path d="M263.956 85.6521C251.637 77.2299 237.915 78.8916 226.159 90.5993C221.818 94.9187 221.807 101.939 226.127 106.275C230.446 110.616 237.472 110.637 241.802 106.307C246.868 101.262 249.19 101.284 254.235 106.307C256.313 108.375 259.122 109.538 262.056 109.538C267.263 109.538 271.361 107.07 274.354 105.268C275.463 104.597 277.537 103.346 278.175 103.325C278.175 103.325 279.534 103.536 282.316 106.307C284.481 108.461 287.307 109.538 290.137 109.538C292.984 109.538 295.826 108.45 297.991 106.275C302.311 101.939 302.3 94.9187 297.959 90.5993C282.944 75.644 270.159 81.9877 263.956 85.6521Z" fill="black"/>
<path d="M327.955 320.105L311.706 316.847V318.97L327.955 321.156V320.105Z" fill="black"/>
<path d="M327.955 291.678V291.665H325.987L327.955 291.678Z" fill="black"/>
<path d="M327.955 263.81V262.004L321.355 263.81H327.955Z" fill="black"/>
<path d="M327.955 219.707H311.706V236.961L327.955 233.507V219.707Z" fill="black"/>
<path d="M311.706 440.957C310.159 437.205 307.075 433.433 302.218 433.102C305.531 435.858 306.826 440.329 307.252 443.971C305.497 441.278 302.76 438.521 298.728 438.325C301.812 440.147 303.163 443.962 303.741 446.722C302.386 445.426 300.345 444.185 297.492 444.047C299.815 445.42 300.899 447.189 301.381 448.737H286.173V451.832H355.037V448.737H338.304C338.786 447.189 339.861 445.42 342.185 444.047C339.331 444.185 337.282 445.457 335.928 446.753C336.506 443.993 337.843 440.163 340.926 438.341C336.894 438.537 334.128 441.286 332.373 443.98C332.799 440.338 334.044 435.862 337.357 433.107C332.675 433.426 329.503 436.938 327.956 440.553V377.296L311.707 374.33L311.706 440.957Z" fill="black"/>
<path d="M348.824 255.309L365.28 239.784L343.922 232.476L288.964 244.517L293.096 263.811H310.361L348.824 255.309Z" fill="black"/>
<path d="M348.925 326.368L293.218 318.753L290.074 341.752L345.781 349.367L366.519 340.488L348.925 326.368Z" fill="black"/>
<path d="M342.82 320.768L364.091 313.258L347.454 298.216L314.361 291.665H291.447L287.726 309.735L342.82 320.768Z" fill="black"/>
<path d="M342.656 289.344V266.132H286.153L266.809 277.738L286.153 289.344H342.656Z" fill="black"/>
<path d="M288.56 344.022L267.425 351.905L284.327 366.845L339.61 377.099L343.843 354.276L288.56 344.022Z" fill="black"/>
<path d="M519.992 174.484C519.199 175.056 518.696 175.657 518.484 176.284C517.923 177.949 518.273 179.083 519.537 179.685C519.962 179.887 520.578 179.899 521.385 179.721C522.192 179.543 522.799 179.028 523.206 178.177L523.807 176.99C523.912 176.676 523.748 176.154 523.315 175.425C522.881 174.695 522.468 174.237 522.078 174.051C521.481 173.768 520.786 173.912 519.992 174.484Z" fill="black"/>
<path d="M526.612 169.155C527.068 167.883 527.899 166.29 529.104 164.377C530.259 162.536 531.483 160.5 532.775 158.272C534.067 156.045 534.777 154.739 534.906 154.356C535.068 153.879 535.006 153.339 534.723 152.736C534.44 152.134 534.068 151.724 533.608 151.505C533.183 151.303 532.579 151.316 531.795 151.544C531.011 151.774 530.392 152.354 529.937 153.285C529.483 154.218 529.23 154.759 529.179 154.908C528.668 156.424 527.617 158.569 526.028 161.344C524.573 163.915 523.489 166.575 522.775 169.324C523.217 170.184 524.013 170.888 525.162 171.436C525.778 170.872 526.262 170.112 526.612 169.155Z" fill="black"/>
<path d="M532.081 181.692C530.908 182.005 530.216 182.475 530.004 183.104C529.746 183.868 529.779 184.621 530.103 185.361C530.426 186.101 530.95 186.644 531.673 186.988C532.362 187.317 533.209 187.367 534.212 187.14C535.216 186.914 535.86 186.377 536.145 185.53C536.509 184.452 536.182 183.623 535.165 183.043C534.758 182.312 534.372 181.858 534.004 181.683C533.475 181.431 533.013 181.377 532.619 181.521C532.479 181.581 532.299 181.638 532.081 181.692Z" fill="black"/>
<path d="M541.563 158.483C540.575 159.098 539.956 159.78 539.712 160.504C539.306 161.705 539.629 162.563 540.686 163.067C542.306 163.838 543.395 163.655 543.954 162.512C544.13 162.185 544.502 161.944 545.069 161.787C545.635 161.629 546.539 161.846 547.779 162.437C548.204 162.639 548.601 162.925 548.972 163.291C549.341 163.657 549.567 163.974 549.651 164.244C549.733 164.513 549.729 165.086 549.64 165.962C549.551 166.838 549.428 167.509 549.272 167.973C549.051 168.628 548.689 169.225 548.188 169.761C547.686 170.299 547.2 170.573 546.729 170.587L544.036 170.564C542.336 170.546 541.169 170.576 540.536 170.655C539.902 170.733 539.164 170.937 538.32 171.263C537.048 172.621 536.235 173.537 535.883 174.011C535.53 174.485 535.245 175.043 535.028 175.683C534.826 176.284 534.723 176.905 534.721 177.545C534.718 178.185 534.877 178.581 535.199 178.735C536.187 179.205 536.946 179.368 537.474 179.225C538.003 179.08 538.444 178.681 538.799 178.026C539.479 176.798 540.137 175.78 540.769 174.972C544.053 175.158 546.241 175.215 547.333 175.14C548.424 175.066 549.472 174.519 550.596 173.558C551.72 172.596 552.564 171.069 553.251 169.036L553.257 169.016C553.879 167.173 554.19 165.753 554.135 164.729C554.081 163.705 553.626 162.411 552.71 160.818C552.164 159.829 551.251 159.07 549.942 158.524C549.267 158.234 548.61 157.914 547.939 157.612C546.976 157.184 546.089 156.72 544.901 157.275L544.918 157.283C543.57 157.761 542.551 157.869 541.563 158.483Z" fill="black"/>
</svg>
