<?xml version="1.0" encoding="UTF-8"?>
<svg id="Camada_2" data-name="Camada 2" xmlns="http://www.w3.org/2000/svg" viewBox="0 0 599.07 146.43">
  <defs>
    <style>
      .cls-1 {
        fill: #fff;
      }

      .cls-1, .cls-2 {
        fill-rule: evenodd;
      }

      .cls-2 {
        fill: #c8c8c8;
      }

      .cls-3 {
        fill: #f7f7f7;
      }
    </style>
  </defs>
  <g id="Camada_1-2" data-name="Camada 1">
    <polygon class="cls-1" points=".5 103 65.76 146.43 65.01 108.02 0 62.59 .5 103"/>
    <polygon class="cls-2" points="28.82 82.73 0 62.59 66.01 18.16 66.52 56.07 28.82 82.73"/>
    <polygon class="cls-2" points="93.76 85.76 94.58 121.22 155.88 79.17 129.09 61.07 93.76 85.76"/>
    <polygon class="cls-1" points="93.21 36.83 155.88 79.17 155.6 42.61 93.48 0 93.21 36.83"/>
    <polygon class="cls-1" points="90.73 42.06 54.72 94.01 64.62 101.16 100.9 48.66 90.73 42.06"/>
    <g>
      <path class="cls-3" d="m170.79,99.48l15.71-54.64h22.53l15.34,54.64h-15.71l-2.46-9.54h-17.21l-2.5,9.54h-15.71Zm20.88-20.66h11.96l-5.43-22.64h-.95l-5.58,22.64Z"/>
      <path class="cls-3" d="m231.31,99.48v-54.64h21.76l16.99,40.59v-40.59h13.98v54.64h-21.8l-16.99-40.95v40.95h-13.94Z"/>
      <path class="cls-3" d="m330.86,82.71c0,5.87-1.27,10.24-3.82,13.12-2.54,2.88-6.43,4.31-11.67,4.31h-6.75c-5.94,0-10.18-1.27-12.71-3.8-2.53-2.53-3.8-6.72-3.8-12.57v-7.74h14.27v6.24c0,1.96.26,3.28.77,3.98s1.43,1.05,2.75,1.05h2.64c1.32,0,2.24-.35,2.75-1.05s.77-2.02.77-3.98v-37.43h14.79v37.87Z"/>
      <path class="cls-3" d="m340.18,66.49c0-8.29,1.55-14.08,4.66-17.38,3.11-3.29,8.52-4.94,16.25-4.94h7.18c7.75,0,13.18,1.65,16.3,4.95,3.12,3.3,4.68,9.09,4.68,17.36v11.34c0,8.27-1.56,14.05-4.68,17.36-3.12,3.3-8.55,4.95-16.3,4.95h-7.18c-7.73,0-13.14-1.65-16.25-4.94-3.11-3.29-4.66-9.08-4.66-17.38v-11.34Zm14.97,1.21v8.99c0,4.67.53,7.61,1.58,8.81,1.05,1.2,3.25,1.8,6.59,1.8h2.71c3.34,0,5.55-.61,6.63-1.83,1.08-1.22,1.61-4.15,1.61-8.77v-8.99c0-4.65-.54-7.59-1.61-8.83-1.07-1.23-3.28-1.85-6.63-1.85h-2.71c-3.32,0-5.51.61-6.58,1.83-1.06,1.22-1.59,4.17-1.59,8.84Z"/>
      <path class="cls-3" d="m409.39,99.48v-42.46h-14.05v-12.18h42.86v12.18h-13.98v42.46h-14.83Z"/>
      <path class="cls-3" d="m446.02,99.48v-54.64h41.06v12.18h-26.42v9.47h25.65v10.53h-25.65v10.27h27.01v12.18h-41.65Z"/>
      <path class="cls-3" d="m541.83,78.46v1.58c0,7.12-1.57,12.25-4.7,15.39s-8.26,4.72-15.38,4.72h-4.95c-7.73,0-13.15-1.65-16.26-4.94-3.11-3.29-4.66-9.08-4.66-17.38v-11.34c0-8.29,1.55-14.08,4.66-17.38,3.11-3.29,8.53-4.94,16.26-4.94h4.04c7.68,0,13.04,1.44,16.07,4.33,3.03,2.89,4.55,7.98,4.55,15.27v1.06h-14.61v-.99c0-2.5-.58-4.26-1.72-5.28-1.15-1.03-3.16-1.54-6.02-1.54-3.16,0-5.26.61-6.31,1.83-1.05,1.22-1.58,4.17-1.58,8.84v8.99c0,4.65.53,7.58,1.58,8.79s3.16,1.82,6.31,1.82c2.96,0,5-.56,6.13-1.67,1.12-1.11,1.69-3.09,1.69-5.93v-1.25h14.9Z"/>
      <path class="cls-3" d="m550.71,99.48v-54.64h14.64v20.44h19.08v-20.44h14.64v54.64h-14.64v-21.36h-19.08v21.36h-14.64Z"/>
    </g>
  </g>
</svg>