<svg width="681" height="136" viewBox="0 0 681 136" fill="none" xmlns="http://www.w3.org/2000/svg">
<path d="M85.5966 87.4034H104.541V133.611H88.9246V128.235C82.6953 132.843 74.6739 135.147 64.8606 135.147C56.5833 135.147 48.9886 133.355 42.0766 129.771C35.1646 126.187 29.6606 120.982 25.5646 114.155C21.4686 107.243 19.4206 99.0514 19.4206 89.5794C19.4206 80.4488 21.5113 72.3421 25.6926 65.2594C29.9593 58.0914 35.8473 52.5021 43.3566 48.4914C50.8659 44.4808 59.3139 42.4754 68.7006 42.4754C76.5513 42.4754 83.6766 43.7981 90.0766 46.4434C96.4766 49.0888 101.853 52.9288 106.205 57.9634L92.8926 70.2514C86.4926 63.5101 78.7699 60.1394 69.7246 60.1394C64.0073 60.1394 58.9299 61.3768 54.4926 63.8514C50.0553 66.2408 46.5993 69.6541 44.1246 74.0914C41.6499 78.5288 40.4126 83.6488 40.4126 89.4514C40.4126 95.5101 41.6073 100.673 43.9966 104.939C46.4713 109.206 49.7566 112.449 53.8526 114.667C57.9486 116.801 62.4286 117.867 67.2926 117.867C74.5459 117.867 80.6473 115.819 85.5966 111.723V87.4034Z" fill="url(#paint0_linear_361_64)"/>
<path d="M178.165 82.3795V133.26H169.333V125.196C167.285 128.012 164.693 130.156 161.557 131.628C158.421 133.1 154.965 133.836 151.189 133.836C146.261 133.836 141.845 132.748 137.941 130.572C134.037 128.396 130.965 125.356 128.725 121.452C126.549 117.484 125.461 112.94 125.461 107.82C125.461 102.7 126.549 98.1875 128.725 94.2835C130.965 90.3795 134.037 87.3395 137.941 85.1635C141.845 82.9875 146.261 81.8995 151.189 81.8995C154.837 81.8995 158.197 82.6035 161.269 84.0115C164.341 85.3555 166.901 87.3715 168.949 90.0595V82.3795H178.165ZM151.957 125.772C155.157 125.772 158.069 125.036 160.693 123.564C163.317 122.028 165.365 119.916 166.837 117.228C168.309 114.476 169.045 111.34 169.045 107.82C169.045 104.3 168.309 101.196 166.837 98.5075C165.365 95.7555 163.317 93.6435 160.693 92.1715C158.069 90.6995 155.157 89.9635 151.957 89.9635C148.693 89.9635 145.749 90.6995 143.125 92.1715C140.565 93.6435 138.517 95.7555 136.981 98.5075C135.509 101.196 134.773 104.3 134.773 107.82C134.773 111.34 135.509 114.476 136.981 117.228C138.517 119.916 140.565 122.028 143.125 123.564C145.749 125.036 148.693 125.772 151.957 125.772Z" fill="url(#paint1_linear_361_64)"/>
<path d="M223.538 133.836C218.354 133.836 213.714 132.716 209.618 130.476C205.586 128.236 202.418 125.164 200.114 121.26C197.81 117.292 196.658 112.812 196.658 107.82C196.658 102.828 197.81 98.3795 200.114 94.4755C202.418 90.5075 205.586 87.4355 209.618 85.2595C213.714 83.0195 218.354 81.8995 223.538 81.8995C228.146 81.8995 232.242 82.8275 235.826 84.6835C239.474 86.5395 242.29 89.2275 244.274 92.7475L237.266 97.2595C235.666 94.8275 233.682 93.0035 231.314 91.7875C228.946 90.5715 226.322 89.9635 223.442 89.9635C220.114 89.9635 217.106 90.6995 214.418 92.1715C211.794 93.6435 209.714 95.7555 208.178 98.5075C206.706 101.196 205.97 104.3 205.97 107.82C205.97 111.404 206.706 114.572 208.178 117.324C209.714 120.012 211.794 122.092 214.418 123.564C217.106 125.036 220.114 125.772 223.442 125.772C226.322 125.772 228.946 125.164 231.314 123.948C233.682 122.732 235.666 120.908 237.266 118.476L244.274 122.892C242.29 126.412 239.474 129.132 235.826 131.052C232.242 132.908 228.146 133.836 223.538 133.836Z" fill="url(#paint2_linear_361_64)"/>
<path d="M284.16 125.772C290.24 125.772 295.136 123.724 298.848 119.628L303.84 125.58C301.6 128.268 298.752 130.316 295.296 131.724C291.904 133.132 288.096 133.836 283.872 133.836C278.496 133.836 273.728 132.748 269.568 130.572C265.408 128.332 262.176 125.228 259.872 121.26C257.632 117.292 256.512 112.812 256.512 107.82C256.512 102.892 257.6 98.4435 259.776 94.4755C262.016 90.5075 265.056 87.4355 268.896 85.2595C272.8 83.0195 277.184 81.8995 282.048 81.8995C286.656 81.8995 290.848 82.9555 294.624 85.0675C298.4 87.1155 301.408 90.0275 303.648 93.8035C305.888 97.5795 307.04 101.932 307.104 106.86L266.688 114.732C267.968 118.252 270.112 120.972 273.12 122.892C276.192 124.812 279.872 125.772 284.16 125.772ZM282.048 89.6755C278.848 89.6755 275.968 90.4115 273.408 91.8835C270.912 93.3555 268.96 95.4355 267.552 98.1235C266.144 100.748 265.44 103.82 265.44 107.34V108.3L297.984 102.156C297.152 98.4435 295.296 95.4355 292.416 93.1315C289.536 90.8275 286.08 89.6755 282.048 89.6755Z" fill="url(#paint3_linear_361_64)"/>
<path d="M340.349 133.836C336.189 133.836 332.189 133.292 328.349 132.204C324.509 131.052 321.501 129.612 319.325 127.884L323.165 120.588C325.405 122.188 328.125 123.468 331.325 124.428C334.525 125.388 337.757 125.868 341.021 125.868C349.085 125.868 353.117 123.564 353.117 118.956C353.117 117.42 352.573 116.204 351.485 115.308C350.397 114.412 349.021 113.772 347.357 113.388C345.757 112.94 343.453 112.46 340.445 111.948C336.349 111.308 332.989 110.572 330.365 109.74C327.805 108.908 325.597 107.5 323.741 105.516C321.885 103.532 320.957 100.748 320.957 97.1635C320.957 92.5555 322.877 88.8755 326.717 86.1235C330.557 83.3075 335.709 81.8995 342.173 81.8995C345.565 81.8995 348.957 82.3155 352.349 83.1475C355.741 83.9795 358.525 85.0995 360.701 86.5075L356.765 93.8035C352.605 91.1155 347.709 89.7715 342.077 89.7715C338.173 89.7715 335.197 90.4115 333.149 91.6915C331.101 92.9715 330.077 94.6675 330.077 96.7795C330.077 98.4435 330.653 99.7555 331.805 100.716C332.957 101.676 334.365 102.38 336.029 102.828C337.757 103.276 340.157 103.788 343.229 104.364C347.325 105.068 350.621 105.836 353.117 106.668C355.677 107.436 357.853 108.78 359.645 110.7C361.437 112.62 362.333 115.308 362.333 118.764C362.333 123.372 360.349 127.052 356.381 129.804C352.477 132.492 347.133 133.836 340.349 133.836Z" fill="url(#paint4_linear_361_64)"/>
<path d="M394.203 133.836C390.043 133.836 386.043 133.292 382.203 132.204C378.363 131.052 375.355 129.612 373.179 127.884L377.019 120.588C379.259 122.188 381.979 123.468 385.179 124.428C388.379 125.388 391.611 125.868 394.875 125.868C402.939 125.868 406.971 123.564 406.971 118.956C406.971 117.42 406.427 116.204 405.339 115.308C404.251 114.412 402.875 113.772 401.211 113.388C399.611 112.94 397.307 112.46 394.299 111.948C390.203 111.308 386.843 110.572 384.219 109.74C381.659 108.908 379.451 107.5 377.595 105.516C375.739 103.532 374.811 100.748 374.811 97.1635C374.811 92.5555 376.731 88.8755 380.571 86.1235C384.411 83.3075 389.563 81.8995 396.027 81.8995C399.419 81.8995 402.811 82.3155 406.203 83.1475C409.595 83.9795 412.379 85.0995 414.555 86.5075L410.619 93.8035C406.459 91.1155 401.563 89.7715 395.931 89.7715C392.027 89.7715 389.051 90.4115 387.003 91.6915C384.955 92.9715 383.931 94.6675 383.931 96.7795C383.931 98.4435 384.507 99.7555 385.659 100.716C386.811 101.676 388.219 102.38 389.883 102.828C391.611 103.276 394.011 103.788 397.083 104.364C401.179 105.068 404.475 105.836 406.971 106.668C409.531 107.436 411.707 108.78 413.499 110.7C415.291 112.62 416.187 115.308 416.187 118.764C416.187 123.372 414.203 127.052 410.235 129.804C406.331 132.492 400.987 133.836 394.203 133.836Z" fill="url(#paint5_linear_361_64)"/>
<path d="M455.257 133.836C450.201 133.836 445.657 132.716 441.625 130.476C437.593 128.236 434.425 125.164 432.121 121.26C429.881 117.292 428.761 112.812 428.761 107.82C428.761 102.828 429.881 98.3795 432.121 94.4755C434.425 90.5075 437.593 87.4355 441.625 85.2595C445.657 83.0195 450.201 81.8995 455.257 81.8995C460.313 81.8995 464.825 83.0195 468.793 85.2595C472.825 87.4355 475.961 90.5075 478.201 94.4755C480.505 98.3795 481.657 102.828 481.657 107.82C481.657 112.812 480.505 117.292 478.201 121.26C475.961 125.164 472.825 128.236 468.793 130.476C464.825 132.716 460.313 133.836 455.257 133.836ZM455.257 125.772C458.521 125.772 461.433 125.036 463.993 123.564C466.617 122.028 468.665 119.916 470.137 117.228C471.609 114.476 472.345 111.34 472.345 107.82C472.345 104.3 471.609 101.196 470.137 98.5075C468.665 95.7555 466.617 93.6435 463.993 92.1715C461.433 90.6995 458.521 89.9635 455.257 89.9635C451.993 89.9635 449.049 90.6995 446.425 92.1715C443.865 93.6435 441.817 95.7555 440.281 98.5075C438.809 101.196 438.073 104.3 438.073 107.82C438.073 111.34 438.809 114.476 440.281 117.228C441.817 119.916 443.865 122.028 446.425 123.564C449.049 125.036 451.993 125.772 455.257 125.772ZM461.017 62.5075H472.729L456.601 74.9875H447.961L461.017 62.5075Z" fill="url(#paint6_linear_361_64)"/>
<path d="M508.994 90.9235C510.594 87.9795 512.962 85.7395 516.098 84.2035C519.234 82.6675 523.042 81.8995 527.522 81.8995V90.8275C527.01 90.7635 526.306 90.7315 525.41 90.7315C520.418 90.7315 516.482 92.2355 513.602 95.2435C510.786 98.1875 509.378 102.412 509.378 107.916V133.26H500.162V82.3795H508.994V90.9235Z" fill="url(#paint7_linear_361_64)"/>
<path d="M544.641 82.3795H553.857V133.26H544.641V82.3795ZM549.249 72.5875C547.457 72.5875 545.953 72.0115 544.737 70.8595C543.585 69.7075 543.009 68.2995 543.009 66.6355C543.009 64.9715 543.585 63.5635 544.737 62.4115C545.953 61.1955 547.457 60.5875 549.249 60.5875C551.041 60.5875 552.513 61.1635 553.665 62.3155C554.881 63.4035 555.489 64.7795 555.489 66.4435C555.489 68.1715 554.881 69.6435 553.665 70.8595C552.513 72.0115 551.041 72.5875 549.249 72.5875Z" fill="url(#paint8_linear_361_64)"/>
<path d="M599.005 133.836C593.949 133.836 589.405 132.716 585.373 130.476C581.341 128.236 578.173 125.164 575.869 121.26C573.629 117.292 572.509 112.812 572.509 107.82C572.509 102.828 573.629 98.3795 575.869 94.4755C578.173 90.5075 581.341 87.4355 585.373 85.2595C589.405 83.0195 593.949 81.8995 599.005 81.8995C604.061 81.8995 608.573 83.0195 612.541 85.2595C616.573 87.4355 619.709 90.5075 621.949 94.4755C624.253 98.3795 625.405 102.828 625.405 107.82C625.405 112.812 624.253 117.292 621.949 121.26C619.709 125.164 616.573 128.236 612.541 130.476C608.573 132.716 604.061 133.836 599.005 133.836ZM599.005 125.772C602.269 125.772 605.181 125.036 607.741 123.564C610.365 122.028 612.413 119.916 613.885 117.228C615.357 114.476 616.093 111.34 616.093 107.82C616.093 104.3 615.357 101.196 613.885 98.5075C612.413 95.7555 610.365 93.6435 607.741 92.1715C605.181 90.6995 602.269 89.9635 599.005 89.9635C595.741 89.9635 592.797 90.6995 590.173 92.1715C587.613 93.6435 585.565 95.7555 584.029 98.5075C582.557 101.196 581.821 104.3 581.821 107.82C581.821 111.34 582.557 114.476 584.029 117.228C585.565 119.916 587.613 122.028 590.173 123.564C592.797 125.036 595.741 125.772 599.005 125.772Z" fill="url(#paint9_linear_361_64)"/>
<path d="M658.503 133.836C654.343 133.836 650.343 133.292 646.503 132.204C642.663 131.052 639.655 129.612 637.479 127.884L641.319 120.588C643.559 122.188 646.279 123.468 649.479 124.428C652.679 125.388 655.911 125.868 659.175 125.868C667.239 125.868 671.271 123.564 671.271 118.956C671.271 117.42 670.727 116.204 669.639 115.308C668.551 114.412 667.175 113.772 665.511 113.388C663.911 112.94 661.607 112.46 658.599 111.948C654.503 111.308 651.143 110.572 648.519 109.74C645.959 108.908 643.751 107.5 641.895 105.516C640.039 103.532 639.111 100.748 639.111 97.1635C639.111 92.5555 641.031 88.8755 644.871 86.1235C648.711 83.3075 653.863 81.8995 660.327 81.8995C663.719 81.8995 667.111 82.3155 670.503 83.1475C673.895 83.9795 676.679 85.0995 678.855 86.5075L674.919 93.8035C670.759 91.1155 665.863 89.7715 660.231 89.7715C656.327 89.7715 653.351 90.4115 651.303 91.6915C649.255 92.9715 648.231 94.6675 648.231 96.7795C648.231 98.4435 648.807 99.7555 649.959 100.716C651.111 101.676 652.519 102.38 654.183 102.828C655.911 103.276 658.311 103.788 661.383 104.364C665.479 105.068 668.775 105.836 671.271 106.668C673.831 107.436 676.007 108.78 677.799 110.7C679.591 112.62 680.487 115.308 680.487 118.764C680.487 123.372 678.503 127.052 674.535 129.804C670.631 132.492 665.287 133.836 658.503 133.836Z" fill="url(#paint10_linear_361_64)"/>
<path d="M34.4552 0.076962C33.7068 0.229019 33.0279 0.60512 32.5051 1.15736C31.9823 1.7096 31.6392 2.41299 31.5195 3.17794L30.3974 10.242L17.9549 7.77669C16.9374 7.57525 15.8971 7.78892 15.0626 8.37071C14.2281 8.95251 13.6678 9.85478 13.5049 10.8791L11.515 23.4065L4.4988 22.0163C3.74002 21.8661 2.96233 21.9458 2.26404 22.2452C1.56575 22.5447 0.978219 23.0505 0.575723 23.6988C0.173226 24.347 -0.0261661 25.1086 0.00275387 25.8872C0.0316738 26.6657 0.287607 27.4264 0.738199 28.073L12.8023 45.3771C14.3155 47.5422 16.5935 49.0411 19.1367 49.545C21.6798 50.0489 24.2805 49.5166 26.3682 48.065L48.3976 32.7064C50.4817 31.2496 51.8805 28.9935 52.2872 26.433C52.6939 23.8725 52.0753 21.2167 50.5671 19.0481L38.503 1.74399C38.0524 1.09734 37.4273 0.593817 36.7068 0.297091C35.9864 0.000365704 35.2028 -0.0762399 34.4552 0.076962ZM47.4201 21.2422C48.3268 22.5428 48.6991 24.1368 48.455 25.6737C48.2108 27.2105 47.3703 28.5643 46.1184 29.4372L24.0889 44.7957C22.8369 45.6686 21.276 45.9891 19.7496 45.6866C18.2231 45.3842 16.8561 44.4836 15.9494 43.183L3.88527 25.8789L12.8197 27.6492C13.3284 27.7499 13.8486 27.643 14.2659 27.3521C14.6831 27.0613 14.9633 26.6101 15.0447 26.0979L17.3413 11.6393L31.7021 14.4847C32.2108 14.5854 32.731 14.4785 33.1483 14.1876C33.5655 13.8967 33.8457 13.4456 33.9271 12.9334L35.3559 3.93808L47.4201 21.2422Z" fill="url(#paint11_linear_361_64)"/>
<defs>
<linearGradient id="paint0_linear_361_64" x1="97.8901" y1="20.2122" x2="133.293" y2="201.395" gradientUnits="userSpaceOnUse">
<stop offset="1" stop-color="#FF9500"/>
</linearGradient>
<linearGradient id="paint1_linear_361_64" x1="97.8901" y1="20.2122" x2="133.293" y2="201.395" gradientUnits="userSpaceOnUse">
<stop offset="1" stop-color="#FF9500"/>
</linearGradient>
<linearGradient id="paint2_linear_361_64" x1="97.8901" y1="20.2122" x2="133.293" y2="201.395" gradientUnits="userSpaceOnUse">
<stop offset="1" stop-color="#FF9500"/>
</linearGradient>
<linearGradient id="paint3_linear_361_64" x1="97.8901" y1="20.2122" x2="133.293" y2="201.395" gradientUnits="userSpaceOnUse">
<stop offset="1" stop-color="#FF9500"/>
</linearGradient>
<linearGradient id="paint4_linear_361_64" x1="97.8901" y1="20.2122" x2="133.293" y2="201.395" gradientUnits="userSpaceOnUse">
<stop offset="1" stop-color="#FF9500"/>
</linearGradient>
<linearGradient id="paint5_linear_361_64" x1="97.8901" y1="20.2122" x2="133.293" y2="201.395" gradientUnits="userSpaceOnUse">
<stop offset="1" stop-color="#FF9500"/>
</linearGradient>
<linearGradient id="paint6_linear_361_64" x1="97.8901" y1="20.2122" x2="133.293" y2="201.395" gradientUnits="userSpaceOnUse">
<stop offset="1" stop-color="#FF9500"/>
</linearGradient>
<linearGradient id="paint7_linear_361_64" x1="97.8901" y1="20.2122" x2="133.293" y2="201.395" gradientUnits="userSpaceOnUse">
<stop offset="1" stop-color="#FF9500"/>
</linearGradient>
<linearGradient id="paint8_linear_361_64" x1="97.8901" y1="20.2122" x2="133.293" y2="201.395" gradientUnits="userSpaceOnUse">
<stop offset="1" stop-color="#FF9500"/>
</linearGradient>
<linearGradient id="paint9_linear_361_64" x1="97.8901" y1="20.2122" x2="133.293" y2="201.395" gradientUnits="userSpaceOnUse">
<stop offset="1" stop-color="#FF9500"/>
</linearGradient>
<linearGradient id="paint10_linear_361_64" x1="97.8901" y1="20.2122" x2="133.293" y2="201.395" gradientUnits="userSpaceOnUse">
<stop offset="1" stop-color="#FF9500"/>
</linearGradient>
<linearGradient id="paint11_linear_361_64" x1="97.8901" y1="20.2122" x2="133.293" y2="201.395" gradientUnits="userSpaceOnUse">
<stop offset="1" stop-color="#FF9500"/>
</linearGradient>
</defs>
</svg>
