<svg width="682" height="136" viewBox="0 0 682 136" fill="none" xmlns="http://www.w3.org/2000/svg">
<path d="M86.1679 88.1437H105.112V134.352H89.4959V128.976C83.2666 133.584 75.2452 135.888 65.4319 135.888C57.1546 135.888 49.5599 134.096 42.6479 130.512C35.7359 126.928 30.2319 121.722 26.1359 114.896C22.0399 107.984 19.9919 99.7917 19.9919 90.3197C19.9919 81.189 22.0826 73.0823 26.2639 65.9997C30.5306 58.8317 36.4186 53.2423 43.9279 49.2317C51.4372 45.221 59.8852 43.2157 69.2719 43.2157C77.1226 43.2157 84.2479 44.5383 90.6479 47.1837C97.0479 49.829 102.424 53.669 106.776 58.7037L93.4639 70.9917C87.0639 64.2503 79.3412 60.8797 70.2959 60.8797C64.5786 60.8797 59.5012 62.117 55.0639 64.5917C50.6266 66.981 47.1706 70.3943 44.6959 74.8317C42.2212 79.269 40.9839 84.389 40.9839 90.1917C40.9839 96.2503 42.1786 101.413 44.5679 105.68C47.0426 109.946 50.3279 113.189 54.4239 115.408C58.5199 117.541 62.9999 118.608 67.8639 118.608C75.1172 118.608 81.2186 116.56 86.1679 112.464V88.1437Z" fill="url(#paint0_linear_171_9)"/>
<path d="M178.736 83.1198V134H169.904V125.936C167.856 128.752 165.264 130.896 162.128 132.368C158.992 133.84 155.536 134.576 151.76 134.576C146.832 134.576 142.416 133.488 138.512 131.312C134.608 129.136 131.536 126.096 129.296 122.192C127.12 118.224 126.032 113.68 126.032 108.56C126.032 103.44 127.12 98.9278 129.296 95.0238C131.536 91.1198 134.608 88.0798 138.512 85.9038C142.416 83.7278 146.832 82.6398 151.76 82.6398C155.408 82.6398 158.768 83.3438 161.84 84.7518C164.912 86.0958 167.472 88.1118 169.52 90.7998V83.1198H178.736ZM152.528 126.512C155.728 126.512 158.64 125.776 161.264 124.304C163.888 122.768 165.936 120.656 167.408 117.968C168.88 115.216 169.616 112.08 169.616 108.56C169.616 105.04 168.88 101.936 167.408 99.2478C165.936 96.4958 163.888 94.3838 161.264 92.9118C158.64 91.4398 155.728 90.7038 152.528 90.7038C149.264 90.7038 146.32 91.4398 143.696 92.9118C141.136 94.3838 139.088 96.4958 137.552 99.2478C136.08 101.936 135.344 105.04 135.344 108.56C135.344 112.08 136.08 115.216 137.552 117.968C139.088 120.656 141.136 122.768 143.696 124.304C146.32 125.776 149.264 126.512 152.528 126.512Z" fill="url(#paint1_linear_171_9)"/>
<path d="M224.109 134.576C218.925 134.576 214.285 133.456 210.189 131.216C206.157 128.976 202.989 125.904 200.685 122C198.381 118.032 197.229 113.552 197.229 108.56C197.229 103.568 198.381 99.1198 200.685 95.2158C202.989 91.2478 206.157 88.1758 210.189 85.9998C214.285 83.7598 218.925 82.6398 224.109 82.6398C228.717 82.6398 232.813 83.5678 236.397 85.4238C240.045 87.2798 242.861 89.9678 244.845 93.4878L237.837 97.9998C236.237 95.5678 234.253 93.7438 231.885 92.5278C229.517 91.3118 226.893 90.7038 224.013 90.7038C220.685 90.7038 217.677 91.4398 214.989 92.9118C212.365 94.3838 210.285 96.4958 208.749 99.2478C207.277 101.936 206.541 105.04 206.541 108.56C206.541 112.144 207.277 115.312 208.749 118.064C210.285 120.752 212.365 122.832 214.989 124.304C217.677 125.776 220.685 126.512 224.013 126.512C226.893 126.512 229.517 125.904 231.885 124.688C234.253 123.472 236.237 121.648 237.837 119.216L244.845 123.632C242.861 127.152 240.045 129.872 236.397 131.792C232.813 133.648 228.717 134.576 224.109 134.576Z" fill="url(#paint2_linear_171_9)"/>
<path d="M284.731 126.512C290.811 126.512 295.707 124.464 299.419 120.368L304.411 126.32C302.171 129.008 299.323 131.056 295.867 132.464C292.475 133.872 288.667 134.576 284.443 134.576C279.067 134.576 274.299 133.488 270.139 131.312C265.979 129.072 262.747 125.968 260.443 122C258.203 118.032 257.083 113.552 257.083 108.56C257.083 103.632 258.171 99.1838 260.347 95.2158C262.587 91.2478 265.627 88.1758 269.467 85.9998C273.371 83.7598 277.755 82.6398 282.619 82.6398C287.227 82.6398 291.419 83.6958 295.195 85.8078C298.971 87.8558 301.979 90.7678 304.219 94.5438C306.459 98.3198 307.611 102.672 307.675 107.6L267.259 115.472C268.539 118.992 270.683 121.712 273.691 123.632C276.763 125.552 280.443 126.512 284.731 126.512ZM282.619 90.4158C279.419 90.4158 276.539 91.1518 273.979 92.6238C271.483 94.0958 269.531 96.1758 268.123 98.8638C266.715 101.488 266.011 104.56 266.011 108.08V109.04L298.555 102.896C297.723 99.1838 295.867 96.1758 292.987 93.8718C290.107 91.5678 286.651 90.4158 282.619 90.4158Z" fill="url(#paint3_linear_171_9)"/>
<path d="M340.92 134.576C336.76 134.576 332.76 134.032 328.92 132.944C325.08 131.792 322.072 130.352 319.896 128.624L323.736 121.328C325.976 122.928 328.696 124.208 331.896 125.168C335.096 126.128 338.328 126.608 341.592 126.608C349.656 126.608 353.688 124.304 353.688 119.696C353.688 118.16 353.144 116.944 352.056 116.048C350.968 115.152 349.592 114.512 347.928 114.128C346.328 113.68 344.024 113.2 341.016 112.688C336.92 112.048 333.56 111.312 330.936 110.48C328.376 109.648 326.168 108.24 324.312 106.256C322.456 104.272 321.528 101.488 321.528 97.9038C321.528 93.2958 323.448 89.6158 327.288 86.8638C331.128 84.0478 336.28 82.6398 342.744 82.6398C346.136 82.6398 349.528 83.0558 352.92 83.8878C356.312 84.7198 359.096 85.8398 361.272 87.2478L357.336 94.5438C353.176 91.8558 348.28 90.5118 342.648 90.5118C338.744 90.5118 335.768 91.1518 333.72 92.4318C331.672 93.7118 330.648 95.4078 330.648 97.5198C330.648 99.1838 331.224 100.496 332.376 101.456C333.528 102.416 334.936 103.12 336.6 103.568C338.328 104.016 340.728 104.528 343.8 105.104C347.896 105.808 351.192 106.576 353.688 107.408C356.248 108.176 358.424 109.52 360.216 111.44C362.008 113.36 362.904 116.048 362.904 119.504C362.904 124.112 360.92 127.792 356.952 130.544C353.048 133.232 347.704 134.576 340.92 134.576Z" fill="url(#paint4_linear_171_9)"/>
<path d="M394.774 134.576C390.614 134.576 386.614 134.032 382.774 132.944C378.934 131.792 375.926 130.352 373.75 128.624L377.59 121.328C379.83 122.928 382.55 124.208 385.75 125.168C388.95 126.128 392.182 126.608 395.446 126.608C403.51 126.608 407.542 124.304 407.542 119.696C407.542 118.16 406.998 116.944 405.91 116.048C404.822 115.152 403.446 114.512 401.782 114.128C400.182 113.68 397.878 113.2 394.87 112.688C390.774 112.048 387.414 111.312 384.79 110.48C382.23 109.648 380.022 108.24 378.166 106.256C376.31 104.272 375.382 101.488 375.382 97.9038C375.382 93.2958 377.302 89.6158 381.142 86.8638C384.982 84.0478 390.134 82.6398 396.598 82.6398C399.99 82.6398 403.382 83.0558 406.774 83.8878C410.166 84.7198 412.95 85.8398 415.126 87.2478L411.19 94.5438C407.03 91.8558 402.134 90.5118 396.502 90.5118C392.598 90.5118 389.622 91.1518 387.574 92.4318C385.526 93.7118 384.502 95.4078 384.502 97.5198C384.502 99.1838 385.078 100.496 386.23 101.456C387.382 102.416 388.79 103.12 390.454 103.568C392.182 104.016 394.582 104.528 397.654 105.104C401.75 105.808 405.046 106.576 407.542 107.408C410.102 108.176 412.278 109.52 414.07 111.44C415.862 113.36 416.758 116.048 416.758 119.504C416.758 124.112 414.774 127.792 410.806 130.544C406.902 133.232 401.558 134.576 394.774 134.576Z" fill="url(#paint5_linear_171_9)"/>
<path d="M455.828 134.576C450.772 134.576 446.228 133.456 442.196 131.216C438.164 128.976 434.996 125.904 432.692 122C430.452 118.032 429.332 113.552 429.332 108.56C429.332 103.568 430.452 99.1198 432.692 95.2158C434.996 91.2478 438.164 88.1758 442.196 85.9998C446.228 83.7598 450.772 82.6398 455.828 82.6398C460.884 82.6398 465.396 83.7598 469.364 85.9998C473.396 88.1758 476.532 91.2478 478.772 95.2158C481.076 99.1198 482.228 103.568 482.228 108.56C482.228 113.552 481.076 118.032 478.772 122C476.532 125.904 473.396 128.976 469.364 131.216C465.396 133.456 460.884 134.576 455.828 134.576ZM455.828 126.512C459.092 126.512 462.004 125.776 464.564 124.304C467.188 122.768 469.236 120.656 470.708 117.968C472.18 115.216 472.916 112.08 472.916 108.56C472.916 105.04 472.18 101.936 470.708 99.2478C469.236 96.4958 467.188 94.3838 464.564 92.9118C462.004 91.4398 459.092 90.7038 455.828 90.7038C452.564 90.7038 449.62 91.4398 446.996 92.9118C444.436 94.3838 442.388 96.4958 440.852 99.2478C439.38 101.936 438.644 105.04 438.644 108.56C438.644 112.08 439.38 115.216 440.852 117.968C442.388 120.656 444.436 122.768 446.996 124.304C449.62 125.776 452.564 126.512 455.828 126.512ZM461.588 63.2478H473.3L457.172 75.7278H448.532L461.588 63.2478Z" fill="url(#paint6_linear_171_9)"/>
<path d="M509.565 91.6638C511.165 88.7198 513.533 86.4798 516.669 84.9438C519.805 83.4078 523.613 82.6398 528.093 82.6398V91.5678C527.581 91.5038 526.877 91.4718 525.981 91.4718C520.989 91.4718 517.053 92.9758 514.173 95.9838C511.357 98.9278 509.949 103.152 509.949 108.656V134H500.733V83.1198H509.565V91.6638Z" fill="url(#paint7_linear_171_9)"/>
<path d="M545.212 83.1198H554.428V134H545.212V83.1198ZM549.82 73.3278C548.028 73.3278 546.524 72.7518 545.308 71.5998C544.156 70.4478 543.58 69.0398 543.58 67.3758C543.58 65.7118 544.156 64.3038 545.308 63.1518C546.524 61.9358 548.028 61.3278 549.82 61.3278C551.612 61.3278 553.084 61.9038 554.236 63.0558C555.452 64.1438 556.06 65.5198 556.06 67.1838C556.06 68.9118 555.452 70.3838 554.236 71.5998C553.084 72.7518 551.612 73.3278 549.82 73.3278Z" fill="url(#paint8_linear_171_9)"/>
<path d="M599.577 134.576C594.521 134.576 589.977 133.456 585.945 131.216C581.913 128.976 578.745 125.904 576.441 122C574.201 118.032 573.081 113.552 573.081 108.56C573.081 103.568 574.201 99.1198 576.441 95.2158C578.745 91.2478 581.913 88.1758 585.945 85.9998C589.977 83.7598 594.521 82.6398 599.577 82.6398C604.633 82.6398 609.145 83.7598 613.113 85.9998C617.145 88.1758 620.281 91.2478 622.521 95.2158C624.825 99.1198 625.977 103.568 625.977 108.56C625.977 113.552 624.825 118.032 622.521 122C620.281 125.904 617.145 128.976 613.113 131.216C609.145 133.456 604.633 134.576 599.577 134.576ZM599.577 126.512C602.841 126.512 605.753 125.776 608.313 124.304C610.937 122.768 612.985 120.656 614.457 117.968C615.929 115.216 616.665 112.08 616.665 108.56C616.665 105.04 615.929 101.936 614.457 99.2478C612.985 96.4958 610.937 94.3838 608.313 92.9118C605.753 91.4398 602.841 90.7038 599.577 90.7038C596.313 90.7038 593.369 91.4398 590.745 92.9118C588.185 94.3838 586.137 96.4958 584.601 99.2478C583.129 101.936 582.393 105.04 582.393 108.56C582.393 112.08 583.129 115.216 584.601 117.968C586.137 120.656 588.185 122.768 590.745 124.304C593.369 125.776 596.313 126.512 599.577 126.512Z" fill="url(#paint9_linear_171_9)"/>
<path d="M659.074 134.576C654.914 134.576 650.914 134.032 647.074 132.944C643.234 131.792 640.226 130.352 638.05 128.624L641.89 121.328C644.13 122.928 646.85 124.208 650.05 125.168C653.25 126.128 656.482 126.608 659.746 126.608C667.81 126.608 671.842 124.304 671.842 119.696C671.842 118.16 671.298 116.944 670.21 116.048C669.122 115.152 667.746 114.512 666.082 114.128C664.482 113.68 662.178 113.2 659.17 112.688C655.074 112.048 651.714 111.312 649.09 110.48C646.53 109.648 644.322 108.24 642.466 106.256C640.61 104.272 639.682 101.488 639.682 97.9038C639.682 93.2958 641.602 89.6158 645.442 86.8638C649.282 84.0478 654.434 82.6398 660.898 82.6398C664.29 82.6398 667.682 83.0558 671.074 83.8878C674.466 84.7198 677.25 85.8398 679.426 87.2478L675.49 94.5438C671.33 91.8558 666.434 90.5118 660.802 90.5118C656.898 90.5118 653.922 91.1518 651.874 92.4318C649.826 93.7118 648.802 95.4078 648.802 97.5198C648.802 99.1838 649.378 100.496 650.53 101.456C651.682 102.416 653.09 103.12 654.754 103.568C656.482 104.016 658.882 104.528 661.954 105.104C666.05 105.808 669.346 106.576 671.842 107.408C674.402 108.176 676.578 109.52 678.37 111.44C680.162 113.36 681.058 116.048 681.058 119.504C681.058 124.112 679.074 127.792 675.106 130.544C671.202 133.232 665.858 134.576 659.074 134.576Z" fill="url(#paint10_linear_171_9)"/>
<path d="M35.0265 0.817196C34.2781 0.969254 33.5992 1.34535 33.0764 1.89759C32.5536 2.44983 32.2105 3.15322 32.0908 3.91817L30.9687 10.9823L18.5262 8.51692C17.5087 8.31548 16.4683 8.52916 15.6339 9.11095C14.7994 9.69274 14.2391 10.595 14.0762 11.6194L12.0863 24.1468L5.07009 22.7566C4.31131 22.6064 3.53361 22.686 2.83533 22.9855C2.13704 23.2849 1.54951 23.7908 1.14701 24.439C0.744515 25.0872 0.545123 25.8488 0.574043 26.6274C0.602963 27.406 0.858896 28.1667 1.30949 28.8132L13.3736 46.1173C14.8868 48.2824 17.1648 49.7813 19.708 50.2852C22.2511 50.7891 24.8518 50.2569 26.9394 48.8052L48.9689 33.4466C51.053 31.9898 52.4518 29.7337 52.8585 27.1732C53.2652 24.6127 52.6466 21.9569 51.1384 19.7883L39.0743 2.48423C38.6237 1.83757 37.9986 1.33405 37.2781 1.03733C36.5576 0.7406 35.7741 0.663995 35.0265 0.817196ZM47.9914 21.9824C48.8981 23.283 49.2704 24.877 49.0262 26.4139C48.7821 27.9508 47.9416 29.3045 46.6897 30.1774L24.6602 45.536C23.4082 46.4088 21.8473 46.7293 20.3208 46.4268C18.7944 46.1244 17.4274 45.2238 16.5207 43.9232L4.45656 26.6192L13.391 28.3894C13.8997 28.4901 14.4199 28.3833 14.8372 28.0924C15.2544 27.8015 15.5345 27.3504 15.616 26.8382L17.9126 12.3795L32.2734 15.2249C32.7821 15.3256 33.3023 15.2188 33.7196 14.9279C34.1368 14.637 34.417 14.1858 34.4984 13.6737L35.9272 4.67831L47.9914 21.9824Z" fill="url(#paint11_linear_171_9)"/>
<defs>
<linearGradient id="paint0_linear_171_9" x1="98.4613" y1="20.9524" x2="133.865" y2="202.135" gradientUnits="userSpaceOnUse">
<stop stop-color="#FFC26D"/>
<stop offset="1" stop-color="#FF9500"/>
</linearGradient>
<linearGradient id="paint1_linear_171_9" x1="98.4613" y1="20.9524" x2="133.865" y2="202.135" gradientUnits="userSpaceOnUse">
<stop stop-color="#FFC26D"/>
<stop offset="1" stop-color="#FF9500"/>
</linearGradient>
<linearGradient id="paint2_linear_171_9" x1="98.4613" y1="20.9524" x2="133.865" y2="202.135" gradientUnits="userSpaceOnUse">
<stop stop-color="#FFC26D"/>
<stop offset="1" stop-color="#FF9500"/>
</linearGradient>
<linearGradient id="paint3_linear_171_9" x1="98.4613" y1="20.9524" x2="133.865" y2="202.135" gradientUnits="userSpaceOnUse">
<stop stop-color="#FFC26D"/>
<stop offset="1" stop-color="#FF9500"/>
</linearGradient>
<linearGradient id="paint4_linear_171_9" x1="98.4613" y1="20.9524" x2="133.865" y2="202.135" gradientUnits="userSpaceOnUse">
<stop stop-color="#FFC26D"/>
<stop offset="1" stop-color="#FF9500"/>
</linearGradient>
<linearGradient id="paint5_linear_171_9" x1="98.4613" y1="20.9524" x2="133.865" y2="202.135" gradientUnits="userSpaceOnUse">
<stop stop-color="#FFC26D"/>
<stop offset="1" stop-color="#FF9500"/>
</linearGradient>
<linearGradient id="paint6_linear_171_9" x1="98.4613" y1="20.9524" x2="133.865" y2="202.135" gradientUnits="userSpaceOnUse">
<stop stop-color="#FFC26D"/>
<stop offset="1" stop-color="#FF9500"/>
</linearGradient>
<linearGradient id="paint7_linear_171_9" x1="98.4613" y1="20.9524" x2="133.865" y2="202.135" gradientUnits="userSpaceOnUse">
<stop stop-color="#FFC26D"/>
<stop offset="1" stop-color="#FF9500"/>
</linearGradient>
<linearGradient id="paint8_linear_171_9" x1="98.4613" y1="20.9524" x2="133.865" y2="202.135" gradientUnits="userSpaceOnUse">
<stop stop-color="#FFC26D"/>
<stop offset="1" stop-color="#FF9500"/>
</linearGradient>
<linearGradient id="paint9_linear_171_9" x1="98.4613" y1="20.9524" x2="133.865" y2="202.135" gradientUnits="userSpaceOnUse">
<stop stop-color="#FFC26D"/>
<stop offset="1" stop-color="#FF9500"/>
</linearGradient>
<linearGradient id="paint10_linear_171_9" x1="98.4613" y1="20.9524" x2="133.865" y2="202.135" gradientUnits="userSpaceOnUse">
<stop stop-color="#FFC26D"/>
<stop offset="1" stop-color="#FF9500"/>
</linearGradient>
<linearGradient id="paint11_linear_171_9" x1="98.4613" y1="20.9524" x2="133.865" y2="202.135" gradientUnits="userSpaceOnUse">
<stop stop-color="#FFC26D"/>
<stop offset="1" stop-color="#FF9500"/>
</linearGradient>
</defs>
</svg>
