<svg width="440" height="291" viewBox="0 0 440 291" fill="none" xmlns="http://www.w3.org/2000/svg">
<path d="M439.983 0H0V291H439.983V0Z" fill="white"/>
<path d="M278.041 50.699H161.975V240.268H278.041V50.699Z" fill="#FF5F00"/>
<path d="M173.93 145.5C173.916 127.246 178.054 109.228 186.031 92.8099C194.008 76.3914 205.615 62.0027 219.975 50.7325C202.19 36.7558 180.832 28.0646 158.342 25.652C135.852 23.2395 113.136 27.2031 92.7923 37.0897C72.4481 46.9763 55.2957 62.3871 43.2957 81.5608C31.2956 100.734 24.9319 122.897 24.9319 145.517C24.9319 168.136 31.2956 190.299 43.2957 209.473C55.2957 228.646 72.4481 244.057 92.7923 253.944C113.136 263.83 135.852 267.794 158.342 265.381C180.832 262.969 202.19 254.278 219.975 240.301C205.611 229.027 194.001 214.633 186.024 198.209C178.046 181.784 173.911 163.759 173.93 145.5Z" fill="#EB001B"/>
<path d="M403.516 220.209V216.325H405.19V215.521H401.205V216.325H402.779V220.209H403.516ZM411.251 220.209V215.521H410.045L408.639 218.87L407.233 215.521H406.027V220.209H406.898V216.659L408.204 219.707H409.108L410.414 216.659V220.209H411.251Z" fill="#F79E1B"/>
<path d="M415.035 145.5C415.034 168.121 408.669 190.285 396.667 209.46C384.665 228.634 367.51 244.045 347.163 253.93C326.816 263.815 304.099 267.776 281.607 265.36C259.116 262.944 237.758 254.249 219.975 240.268C234.328 228.987 245.932 214.595 253.911 198.175C261.891 181.756 266.037 163.739 266.037 145.483C266.037 127.228 261.891 109.211 253.911 92.7913C245.932 76.3719 234.328 61.9792 219.975 50.699C237.758 36.718 259.116 28.0225 281.607 25.6065C304.099 23.1905 326.816 27.1515 347.163 37.0367C367.51 46.9219 384.665 62.3325 396.667 81.5068C408.669 100.681 415.034 122.846 415.035 145.467V145.5Z" fill="#F79E1B"/>
</svg>
