<svg width="189" height="64" viewBox="0 0 189 64" fill="none" xmlns="http://www.w3.org/2000/svg">
<rect x="47" y="9" width="142" height="47" rx="12" fill="#09002C"/>
<path d="M98.162 27.32C97.0953 27.32 96.1673 27.1387 95.378 26.776C94.5887 26.4027 93.9327 25.9173 93.41 25.32C92.8873 24.712 92.498 24.056 92.242 23.352C91.986 22.648 91.858 21.9653 91.858 21.304V20.952C91.858 20.216 91.9913 19.496 92.258 18.792C92.5247 18.0773 92.9247 17.432 93.458 16.856C93.9913 16.28 94.6473 15.8213 95.426 15.48C96.2153 15.1387 97.1273 14.968 98.162 14.968C99.186 14.968 100.087 15.1387 100.866 15.48C101.655 15.8213 102.317 16.28 102.85 16.856C103.383 17.432 103.783 18.0773 104.05 18.792C104.327 19.496 104.466 20.216 104.466 20.952V21.304C104.466 21.9653 104.333 22.648 104.066 23.352C103.81 24.056 103.421 24.712 102.898 25.32C102.375 25.9173 101.719 26.4027 100.93 26.776C100.141 27.1387 99.218 27.32 98.162 27.32ZM98.162 24.536C98.674 24.536 99.1327 24.4507 99.538 24.28C99.9433 24.1093 100.29 23.8693 100.578 23.56C100.866 23.2507 101.085 22.8933 101.234 22.488C101.383 22.072 101.458 21.624 101.458 21.144C101.458 20.632 101.378 20.168 101.218 19.752C101.069 19.336 100.85 18.9787 100.562 18.68C100.274 18.3813 99.9273 18.152 99.522 17.992C99.1167 17.832 98.6633 17.752 98.162 17.752C97.65 17.752 97.1913 17.832 96.786 17.992C96.3807 18.152 96.034 18.3813 95.746 18.68C95.458 18.9787 95.2393 19.336 95.09 19.752C94.9407 20.168 94.866 20.632 94.866 21.144C94.866 21.624 94.9407 22.072 95.09 22.488C95.2393 22.8933 95.458 23.2507 95.746 23.56C96.034 23.8693 96.3807 24.1093 96.786 24.28C97.1913 24.4507 97.65 24.536 98.162 24.536ZM106.326 27V18.2C106.326 17.1653 106.625 16.3973 107.222 15.896C107.819 15.384 108.705 15.128 109.878 15.128H111.014V17.272H109.814C109.558 17.272 109.361 17.3413 109.222 17.48C109.083 17.6187 109.014 17.816 109.014 18.072V27H106.326ZM105.334 20.472V18.36H111.142V20.472H105.334ZM116.372 27.32C115.625 27.32 114.964 27.192 114.388 26.936C113.812 26.68 113.327 26.3333 112.932 25.896C112.537 25.4587 112.233 24.968 112.02 24.424C111.817 23.88 111.716 23.32 111.716 22.744V22.424C111.716 21.8267 111.817 21.256 112.02 20.712C112.233 20.1573 112.532 19.6667 112.916 19.24C113.311 18.8133 113.791 18.4773 114.356 18.232C114.921 17.976 115.561 17.848 116.276 17.848C117.225 17.848 118.031 18.0613 118.692 18.488C119.353 18.9147 119.86 19.48 120.212 20.184C120.564 20.8773 120.74 21.6347 120.74 22.456V23.384H112.932V21.816H119.06L118.052 22.52C118.052 22.0187 117.983 21.5973 117.844 21.256C117.716 20.904 117.519 20.6373 117.252 20.456C116.996 20.2747 116.671 20.184 116.276 20.184C115.892 20.184 115.556 20.2747 115.268 20.456C114.991 20.6267 114.777 20.8933 114.628 21.256C114.479 21.608 114.404 22.056 114.404 22.6C114.404 23.0907 114.473 23.5173 114.612 23.88C114.751 24.232 114.964 24.504 115.252 24.696C115.54 24.888 115.913 24.984 116.372 24.984C116.777 24.984 117.108 24.9147 117.364 24.776C117.631 24.6373 117.817 24.4507 117.924 24.216H120.58C120.452 24.8133 120.196 25.3467 119.812 25.816C119.439 26.2853 118.959 26.6533 118.372 26.92C117.796 27.1867 117.129 27.32 116.372 27.32ZM122.275 27V18.168H124.579V22.008H124.547C124.547 20.7707 124.803 19.8 125.315 19.096C125.837 18.392 126.584 18.04 127.555 18.04H127.907V20.536H127.235C126.584 20.536 126.077 20.712 125.715 21.064C125.363 21.416 125.187 21.9227 125.187 22.584V27H122.275ZM133.483 27.128C132.523 27.128 131.755 27.0107 131.179 26.776C130.613 26.5413 130.203 26.152 129.947 25.608C129.691 25.064 129.563 24.328 129.563 23.4L129.579 15.864H132.267L132.251 23.48C132.251 23.8747 132.352 24.1787 132.555 24.392C132.768 24.5947 133.072 24.696 133.467 24.696H134.683V27.128H133.483ZM128.283 20.28V18.168H134.683V20.28H128.283ZM141.556 27V24.408H141.076V21.64C141.076 21.2347 140.98 20.936 140.788 20.744C140.607 20.5413 140.303 20.44 139.876 20.44C139.674 20.44 139.375 20.4453 138.98 20.456C138.586 20.4667 138.17 20.4827 137.732 20.504C137.295 20.5253 136.895 20.5467 136.532 20.568V18.136C136.788 18.1147 137.092 18.0933 137.444 18.072C137.796 18.0507 138.159 18.0347 138.532 18.024C138.916 18.0133 139.268 18.008 139.588 18.008C140.495 18.008 141.263 18.1413 141.892 18.408C142.532 18.6747 143.018 19.0747 143.348 19.608C143.69 20.1413 143.86 20.8187 143.86 21.64V27H141.556ZM138.756 27.224C138.138 27.224 137.588 27.112 137.108 26.888C136.628 26.664 136.25 26.344 135.972 25.928C135.706 25.5013 135.572 24.9947 135.572 24.408C135.572 23.7467 135.748 23.2133 136.1 22.808C136.452 22.392 136.938 22.088 137.556 21.896C138.175 21.704 138.884 21.608 139.684 21.608H141.396V23.112H139.684C139.29 23.112 138.986 23.2133 138.772 23.416C138.559 23.608 138.452 23.8693 138.452 24.2C138.452 24.52 138.559 24.7813 138.772 24.984C138.986 25.176 139.29 25.272 139.684 25.272C139.94 25.272 140.164 25.2293 140.356 25.144C140.559 25.048 140.724 24.888 140.852 24.664C140.98 24.44 141.055 24.1307 141.076 23.736L141.748 24.376C141.695 24.984 141.546 25.5013 141.3 25.928C141.066 26.344 140.735 26.664 140.308 26.888C139.892 27.112 139.375 27.224 138.756 27.224ZM72.9302 47.288C72.3115 47.288 71.7462 47.176 71.2342 46.952C70.7329 46.728 70.2955 46.4187 69.9222 46.024C69.5595 45.6187 69.2769 45.144 69.0742 44.6C68.8822 44.056 68.7862 43.464 68.7862 42.824V42.44C68.7862 41.8 68.8769 41.208 69.0582 40.664C69.2502 40.1093 69.5222 39.6293 69.8742 39.224C70.2262 38.808 70.6529 38.488 71.1542 38.264C71.6555 38.0293 72.2155 37.912 72.8342 37.912C73.5489 37.912 74.1569 38.072 74.6582 38.392C75.1702 38.7013 75.5595 39.1547 75.8262 39.752C76.1035 40.3493 76.2529 41.0747 76.2742 41.928L75.6022 41.432V35.32H78.5142V47H76.2102V43.416H76.5302C76.5089 44.2053 76.3489 44.8933 76.0502 45.48C75.7515 46.056 75.3355 46.504 74.8022 46.824C74.2795 47.1333 73.6555 47.288 72.9302 47.288ZM73.7142 44.888C74.0662 44.888 74.3862 44.808 74.6742 44.648C74.9729 44.488 75.2129 44.2533 75.3942 43.944C75.5755 43.6347 75.6662 43.2613 75.6662 42.824V42.28C75.6662 41.8533 75.5702 41.496 75.3782 41.208C75.1969 40.92 74.9569 40.7013 74.6582 40.552C74.3702 40.392 74.0555 40.312 73.7142 40.312C73.3302 40.312 72.9835 40.4133 72.6742 40.616C72.3755 40.808 72.1355 41.08 71.9542 41.432C71.7835 41.7733 71.6982 42.1733 71.6982 42.632C71.6982 43.0907 71.7835 43.4907 71.9542 43.832C72.1355 44.1627 72.3755 44.424 72.6742 44.616C72.9835 44.7973 73.3302 44.888 73.7142 44.888ZM81.0423 47V38.168H83.9543V47H81.0423ZM79.9223 40.28V38.168H83.9543V40.28H79.9223ZM82.2423 37.464C81.709 37.464 81.3143 37.3307 81.0583 37.064C80.813 36.7867 80.6903 36.4347 80.6903 36.008C80.6903 35.5813 80.813 35.2347 81.0583 34.968C81.3143 34.6907 81.7036 34.552 82.2263 34.552C82.7596 34.552 83.149 34.6907 83.3943 34.968C83.6396 35.2347 83.7623 35.5813 83.7623 36.008C83.7623 36.4347 83.6396 36.7867 83.3943 37.064C83.149 37.3307 82.765 37.464 82.2423 37.464ZM91.4391 47V44.408H90.9591V41.64C90.9591 41.2347 90.8631 40.936 90.6711 40.744C90.4897 40.5413 90.1857 40.44 89.7591 40.44C89.5564 40.44 89.2577 40.4453 88.8631 40.456C88.4684 40.4667 88.0524 40.4827 87.6151 40.504C87.1777 40.5253 86.7777 40.5467 86.4151 40.568V38.136C86.6711 38.1147 86.9751 38.0933 87.3271 38.072C87.6791 38.0507 88.0417 38.0347 88.4151 38.024C88.7991 38.0133 89.1511 38.008 89.4711 38.008C90.3777 38.008 91.1457 38.1413 91.7751 38.408C92.4151 38.6747 92.9004 39.0747 93.2311 39.608C93.5724 40.1413 93.7431 40.8187 93.7431 41.64V47H91.4391ZM88.6391 47.224C88.0204 47.224 87.4711 47.112 86.9911 46.888C86.5111 46.664 86.1324 46.344 85.8551 45.928C85.5884 45.5013 85.4551 44.9947 85.4551 44.408C85.4551 43.7467 85.6311 43.2133 85.9831 42.808C86.3351 42.392 86.8204 42.088 87.4391 41.896C88.0577 41.704 88.7671 41.608 89.5671 41.608H91.2791V43.112H89.5671C89.1724 43.112 88.8684 43.2133 88.6551 43.416C88.4417 43.608 88.3351 43.8693 88.3351 44.2C88.3351 44.52 88.4417 44.7813 88.6551 44.984C88.8684 45.176 89.1724 45.272 89.5671 45.272C89.8231 45.272 90.0471 45.2293 90.2391 45.144C90.4417 45.048 90.6071 44.888 90.7351 44.664C90.8631 44.44 90.9377 44.1307 90.9591 43.736L91.6311 44.376C91.5777 44.984 91.4284 45.5013 91.1831 45.928C90.9484 46.344 90.6177 46.664 90.1911 46.888C89.7751 47.112 89.2577 47.224 88.6391 47.224ZM102.586 47.288C101.968 47.288 101.402 47.176 100.89 46.952C100.389 46.728 99.9518 46.4187 99.5784 46.024C99.2158 45.6187 98.9331 45.144 98.7304 44.6C98.5384 44.056 98.4424 43.464 98.4424 42.824V42.44C98.4424 41.8 98.5331 41.208 98.7144 40.664C98.9064 40.1093 99.1784 39.6293 99.5304 39.224C99.8824 38.808 100.309 38.488 100.81 38.264C101.312 38.0293 101.872 37.912 102.49 37.912C103.205 37.912 103.813 38.072 104.314 38.392C104.826 38.7013 105.216 39.1547 105.482 39.752C105.76 40.3493 105.909 41.0747 105.93 41.928L105.258 41.432V35.32H108.17V47H105.866V43.416H106.186C106.165 44.2053 106.005 44.8933 105.706 45.48C105.408 46.056 104.992 46.504 104.458 46.824C103.936 47.1333 103.312 47.288 102.586 47.288ZM103.37 44.888C103.722 44.888 104.042 44.808 104.33 44.648C104.629 44.488 104.869 44.2533 105.05 43.944C105.232 43.6347 105.322 43.2613 105.322 42.824V42.28C105.322 41.8533 105.226 41.496 105.034 41.208C104.853 40.92 104.613 40.7013 104.314 40.552C104.026 40.392 103.712 40.312 103.37 40.312C102.986 40.312 102.64 40.4133 102.33 40.616C102.032 40.808 101.792 41.08 101.61 41.432C101.44 41.7733 101.354 42.1733 101.354 42.632C101.354 43.0907 101.44 43.4907 101.61 43.832C101.792 44.1627 102.032 44.424 102.33 44.616C102.64 44.7973 102.986 44.888 103.37 44.888ZM114.683 47.32C113.904 47.32 113.211 47.2027 112.603 46.968C111.995 46.7333 111.477 46.408 111.051 45.992C110.635 45.576 110.315 45.096 110.091 44.552C109.877 44.008 109.771 43.4267 109.771 42.808V42.424C109.771 41.784 109.883 41.1867 110.107 40.632C110.341 40.0773 110.672 39.592 111.099 39.176C111.525 38.76 112.043 38.4347 112.651 38.2C113.259 37.9653 113.936 37.848 114.683 37.848C115.44 37.848 116.117 37.9653 116.715 38.2C117.323 38.4347 117.84 38.76 118.267 39.176C118.693 39.592 119.019 40.0773 119.243 40.632C119.477 41.1867 119.595 41.784 119.595 42.424V42.808C119.595 43.4267 119.483 44.008 119.259 44.552C119.045 45.096 118.725 45.576 118.299 45.992C117.883 46.408 117.371 46.7333 116.763 46.968C116.155 47.2027 115.461 47.32 114.683 47.32ZM114.683 44.888C115.131 44.888 115.499 44.792 115.787 44.6C116.085 44.408 116.309 44.1413 116.459 43.8C116.608 43.448 116.683 43.0533 116.683 42.616C116.683 42.1573 116.603 41.7573 116.443 41.416C116.293 41.064 116.069 40.7867 115.771 40.584C115.472 40.3813 115.109 40.28 114.683 40.28C114.256 40.28 113.893 40.3813 113.595 40.584C113.296 40.7867 113.067 41.064 112.907 41.416C112.757 41.7573 112.683 42.1573 112.683 42.616C112.683 43.0533 112.757 43.448 112.907 43.8C113.056 44.1413 113.28 44.408 113.579 44.6C113.877 44.792 114.245 44.888 114.683 44.888ZM124.693 47.288C123.413 47.288 122.405 47.0267 121.669 46.504C120.933 45.9707 120.538 45.224 120.485 44.264H123.045C123.087 44.5307 123.253 44.76 123.541 44.952C123.829 45.144 124.234 45.24 124.757 45.24C125.13 45.24 125.45 45.1867 125.717 45.08C125.994 44.9627 126.133 44.776 126.133 44.52C126.133 44.296 126.026 44.1147 125.813 43.976C125.599 43.8267 125.21 43.7253 124.645 43.672L124.037 43.608C122.906 43.4907 122.074 43.1813 121.541 42.68C121.007 42.1787 120.741 41.5493 120.741 40.792C120.741 40.1413 120.901 39.608 121.221 39.192C121.541 38.7653 121.983 38.4453 122.549 38.232C123.114 38.0187 123.759 37.912 124.485 37.912C125.669 37.912 126.623 38.1733 127.349 38.696C128.074 39.208 128.458 39.9493 128.501 40.92H125.941C125.898 40.6533 125.754 40.4293 125.509 40.248C125.263 40.056 124.911 39.96 124.453 39.96C124.122 39.96 123.85 40.0187 123.637 40.136C123.434 40.2533 123.333 40.4187 123.333 40.632C123.333 40.856 123.429 41.0213 123.621 41.128C123.823 41.2347 124.143 41.3147 124.581 41.368L125.189 41.432C126.319 41.5493 127.189 41.864 127.797 42.376C128.415 42.8773 128.725 43.5387 128.725 44.36C128.725 44.968 128.559 45.4907 128.229 45.928C127.909 46.3653 127.445 46.7013 126.837 46.936C126.239 47.1707 125.525 47.288 124.693 47.288ZM133.439 50.2V38.168H135.743V41.976H135.487C135.519 41.112 135.689 40.376 135.999 39.768C136.319 39.16 136.751 38.7013 137.295 38.392C137.839 38.072 138.463 37.912 139.167 37.912C139.775 37.912 140.324 38.024 140.815 38.248C141.305 38.4613 141.727 38.7707 142.079 39.176C142.431 39.5707 142.697 40.04 142.879 40.584C143.071 41.128 143.167 41.7253 143.167 42.376V42.76C143.167 43.4107 143.081 44.0133 142.911 44.568C142.74 45.112 142.484 45.592 142.143 46.008C141.801 46.4133 141.38 46.728 140.879 46.952C140.388 47.176 139.823 47.288 139.183 47.288C138.5 47.288 137.897 47.1547 137.375 46.888C136.852 46.6107 136.436 46.2 136.127 45.656C135.828 45.1013 135.668 44.408 135.647 43.576L136.351 44.44V50.2H133.439ZM138.303 44.888C138.687 44.888 139.023 44.792 139.311 44.6C139.609 44.3973 139.839 44.12 139.999 43.768C140.169 43.416 140.255 43.016 140.255 42.568C140.255 42.1093 140.169 41.7147 139.999 41.384C139.839 41.0427 139.615 40.7813 139.327 40.6C139.039 40.408 138.697 40.312 138.303 40.312C137.951 40.312 137.62 40.392 137.311 40.552C137.012 40.712 136.767 40.9467 136.575 41.256C136.383 41.5653 136.287 41.9387 136.287 42.376V42.92C136.287 43.336 136.388 43.6933 136.591 43.992C136.793 44.28 137.049 44.504 137.359 44.664C137.668 44.8133 137.983 44.888 138.303 44.888ZM150.111 47V44.408H149.631V41.64C149.631 41.2347 149.535 40.936 149.343 40.744C149.162 40.5413 148.858 40.44 148.431 40.44C148.228 40.44 147.93 40.4453 147.535 40.456C147.14 40.4667 146.724 40.4827 146.287 40.504C145.85 40.5253 145.45 40.5467 145.087 40.568V38.136C145.343 38.1147 145.647 38.0933 145.999 38.072C146.351 38.0507 146.714 38.0347 147.087 38.024C147.471 38.0133 147.823 38.008 148.143 38.008C149.05 38.008 149.818 38.1413 150.447 38.408C151.087 38.6747 151.572 39.0747 151.903 39.608C152.244 40.1413 152.415 40.8187 152.415 41.64V47H150.111ZM147.311 47.224C146.692 47.224 146.143 47.112 145.663 46.888C145.183 46.664 144.804 46.344 144.527 45.928C144.26 45.5013 144.127 44.9947 144.127 44.408C144.127 43.7467 144.303 43.2133 144.655 42.808C145.007 42.392 145.492 42.088 146.111 41.896C146.73 41.704 147.439 41.608 148.239 41.608H149.951V43.112H148.239C147.844 43.112 147.54 43.2133 147.327 43.416C147.114 43.608 147.007 43.8693 147.007 44.2C147.007 44.52 147.114 44.7813 147.327 44.984C147.54 45.176 147.844 45.272 148.239 45.272C148.495 45.272 148.719 45.2293 148.911 45.144C149.114 45.048 149.279 44.888 149.407 44.664C149.535 44.44 149.61 44.1307 149.631 43.736L150.303 44.376C150.25 44.984 150.1 45.5013 149.855 45.928C149.62 46.344 149.29 46.664 148.863 46.888C148.447 47.112 147.93 47.224 147.311 47.224ZM154.777 47V38.168H157.689V47H154.777ZM153.657 40.28V38.168H157.689V40.28H153.657ZM155.977 37.464C155.443 37.464 155.049 37.3307 154.793 37.064C154.547 36.7867 154.425 36.4347 154.425 36.008C154.425 35.5813 154.547 35.2347 154.793 34.968C155.049 34.6907 155.438 34.552 155.961 34.552C156.494 34.552 156.883 34.6907 157.129 34.968C157.374 35.2347 157.497 35.5813 157.497 36.008C157.497 36.4347 157.374 36.7867 157.129 37.064C156.883 37.3307 156.499 37.464 155.977 37.464ZM163.333 47.288C162.053 47.288 161.045 47.0267 160.309 46.504C159.573 45.9707 159.179 45.224 159.125 44.264H161.685C161.728 44.5307 161.893 44.76 162.181 44.952C162.469 45.144 162.875 45.24 163.397 45.24C163.771 45.24 164.091 45.1867 164.357 45.08C164.635 44.9627 164.773 44.776 164.773 44.52C164.773 44.296 164.667 44.1147 164.453 43.976C164.24 43.8267 163.851 43.7253 163.285 43.672L162.677 43.608C161.547 43.4907 160.715 43.1813 160.181 42.68C159.648 42.1787 159.381 41.5493 159.381 40.792C159.381 40.1413 159.541 39.608 159.861 39.192C160.181 38.7653 160.624 38.4453 161.189 38.232C161.755 38.0187 162.4 37.912 163.125 37.912C164.309 37.912 165.264 38.1733 165.989 38.696C166.715 39.208 167.099 39.9493 167.141 40.92H164.581C164.539 40.6533 164.395 40.4293 164.149 40.248C163.904 40.056 163.552 39.96 163.093 39.96C162.763 39.96 162.491 40.0187 162.277 40.136C162.075 40.2533 161.973 40.4187 161.973 40.632C161.973 40.856 162.069 41.0213 162.261 41.128C162.464 41.2347 162.784 41.3147 163.221 41.368L163.829 41.432C164.96 41.5493 165.829 41.864 166.437 42.376C167.056 42.8773 167.365 43.5387 167.365 44.36C167.365 44.968 167.2 45.4907 166.869 45.928C166.549 46.3653 166.085 46.7013 165.477 46.936C164.88 47.1707 164.165 47.288 163.333 47.288Z" fill="#FF9500"/>
<path d="M32 0L35.6096 3.4271L39.9581 1.00534L42.602 5.22244L47.4161 3.95819L48.9282 8.70031L53.9055 8.673L54.1908 13.6422L59.0185 14.8535L58.059 19.7376L62.4338 22.1115L60.2899 26.6034L63.9369 29.9907L60.7432 33.8084L63.4332 37.9962L59.3904 40.8997L60.9545 45.6249L56.3166 47.4318L56.6564 52.3976L51.715 52.9943L50.8091 57.8885L45.8745 57.2376L43.78 61.7528L39.1623 59.8952L36.0107 63.7477L32 60.8L27.9893 63.7477L24.8377 59.8952L20.22 61.7528L18.1255 57.2376L13.1909 57.8885L12.285 52.9943L7.34358 52.3976L7.68336 47.4318L3.04553 45.6249L4.60957 40.8997L0.566809 37.9962L3.25683 33.8084L0.0631447 29.9907L3.71013 26.6034L1.56619 22.1115L5.94098 19.7376L4.98151 14.8535L9.80922 13.6422L10.0945 8.673L15.0718 8.70031L16.5839 3.95819L21.398 5.22244L24.0419 1.00534L28.3904 3.4271L32 0Z" fill="#FF9500"/>
<path d="M15.8639 28V26.32L20.1839 22.24C20.5253 21.9307 20.7759 21.6533 20.9359 21.408C21.0959 21.1627 21.2026 20.9387 21.2559 20.736C21.3199 20.5333 21.3519 20.3467 21.3519 20.176C21.3519 19.728 21.1973 19.3867 20.8879 19.152C20.5893 18.9067 20.1466 18.784 19.5599 18.784C19.0906 18.784 18.6533 18.8747 18.2479 19.056C17.8533 19.2373 17.5173 19.52 17.2399 19.904L15.3519 18.688C15.7786 18.048 16.3759 17.5413 17.1439 17.168C17.9119 16.7947 18.7973 16.608 19.7999 16.608C20.6319 16.608 21.3573 16.7467 21.9759 17.024C22.6053 17.2907 23.0906 17.6693 23.4319 18.16C23.7839 18.6507 23.9599 19.2373 23.9599 19.92C23.9599 20.2827 23.9119 20.6453 23.8159 21.008C23.7306 21.36 23.5493 21.7333 23.2719 22.128C23.0053 22.5227 22.6106 22.9653 22.0879 23.456L18.5039 26.832L18.0079 25.888H24.3279V28H15.8639ZM30.1974 28.192C29.2801 28.192 28.4588 27.968 27.7334 27.52C27.0081 27.0613 26.4374 26.4 26.0214 25.536C25.6054 24.672 25.3974 23.6267 25.3974 22.4C25.3974 21.1733 25.6054 20.128 26.0214 19.264C26.4374 18.4 27.0081 17.744 27.7334 17.296C28.4588 16.8373 29.2801 16.608 30.1974 16.608C31.1254 16.608 31.9468 16.8373 32.6614 17.296C33.3868 17.744 33.9574 18.4 34.3734 19.264C34.7894 20.128 34.9974 21.1733 34.9974 22.4C34.9974 23.6267 34.7894 24.672 34.3734 25.536C33.9574 26.4 33.3868 27.0613 32.6614 27.52C31.9468 27.968 31.1254 28.192 30.1974 28.192ZM30.1974 26C30.6348 26 31.0134 25.8773 31.3334 25.632C31.6641 25.3867 31.9201 24.9973 32.1014 24.464C32.2934 23.9307 32.3894 23.2427 32.3894 22.4C32.3894 21.5573 32.2934 20.8693 32.1014 20.336C31.9201 19.8027 31.6641 19.4133 31.3334 19.168C31.0134 18.9227 30.6348 18.8 30.1974 18.8C29.7708 18.8 29.3921 18.9227 29.0614 19.168C28.7414 19.4133 28.4854 19.8027 28.2934 20.336C28.1121 20.8693 28.0214 21.5573 28.0214 22.4C28.0214 23.2427 28.1121 23.9307 28.2934 24.464C28.4854 24.9973 28.7414 25.3867 29.0614 25.632C29.3921 25.8773 29.7708 26 30.1974 26ZM37.8728 28L45.5208 16.8H47.4248L39.7768 28H37.8728ZM38.8488 22.848C38.3048 22.848 37.8248 22.7253 37.4088 22.48C36.9928 22.224 36.6621 21.8667 36.4168 21.408C36.1821 20.9387 36.0648 20.3893 36.0648 19.76C36.0648 19.1307 36.1821 18.5867 36.4168 18.128C36.6621 17.6693 36.9928 17.312 37.4088 17.056C37.8248 16.8 38.3048 16.672 38.8488 16.672C39.3928 16.672 39.8728 16.8 40.2888 17.056C40.7048 17.312 41.0301 17.6693 41.2648 18.128C41.4995 18.5867 41.6168 19.1307 41.6168 19.76C41.6168 20.3893 41.4995 20.9387 41.2648 21.408C41.0301 21.8667 40.7048 22.224 40.2888 22.48C39.8728 22.7253 39.3928 22.848 38.8488 22.848ZM38.8488 21.536C39.2008 21.536 39.4835 21.392 39.6968 21.104C39.9101 20.8053 40.0168 20.3573 40.0168 19.76C40.0168 19.1627 39.9101 18.72 39.6968 18.432C39.4835 18.1333 39.2008 17.984 38.8488 17.984C38.5075 17.984 38.2248 18.1333 38.0008 18.432C37.7875 18.72 37.6808 19.1627 37.6808 19.76C37.6808 20.3467 37.7875 20.7893 38.0008 21.088C38.2248 21.3867 38.5075 21.536 38.8488 21.536ZM46.4488 28.128C45.9155 28.128 45.4355 28.0053 45.0088 27.76C44.5928 27.504 44.2675 27.1467 44.0328 26.688C43.7981 26.2187 43.6808 25.6693 43.6808 25.04C43.6808 24.4107 43.7981 23.8667 44.0328 23.408C44.2675 22.9493 44.5928 22.592 45.0088 22.336C45.4355 22.08 45.9155 21.952 46.4488 21.952C47.0035 21.952 47.4888 22.08 47.9048 22.336C48.3208 22.592 48.6461 22.9493 48.8808 23.408C49.1155 23.8667 49.2328 24.4107 49.2328 25.04C49.2328 25.6693 49.1155 26.2187 48.8808 26.688C48.6461 27.1467 48.3208 27.504 47.9048 27.76C47.4888 28.0053 47.0035 28.128 46.4488 28.128ZM46.4488 26.816C46.8008 26.816 47.0835 26.672 47.2968 26.384C47.5101 26.0853 47.6168 25.6373 47.6168 25.04C47.6168 24.4533 47.5101 24.0107 47.2968 23.712C47.0835 23.4133 46.8008 23.264 46.4488 23.264C46.1075 23.264 45.8248 23.4133 45.6008 23.712C45.3875 24 45.2808 24.4427 45.2808 25.04C45.2808 25.6373 45.3875 26.0853 45.6008 26.384C45.8248 26.672 46.1075 26.816 46.4488 26.816ZM22.2993 48.192C21.4139 48.192 20.5926 48.048 19.8353 47.76C19.0886 47.472 18.4379 47.0667 17.8832 46.544C17.3393 46.0213 16.9126 45.408 16.6033 44.704C16.3046 44 16.1553 43.232 16.1553 42.4C16.1553 41.568 16.3046 40.8 16.6033 40.096C16.9126 39.392 17.3446 38.7787 17.8993 38.256C18.4539 37.7333 19.1046 37.328 19.8513 37.04C20.5979 36.752 21.4086 36.608 22.2833 36.608C23.1686 36.608 23.9792 36.752 24.7153 37.04C25.4619 37.328 26.1073 37.7333 26.6513 38.256C27.2059 38.7787 27.6379 39.392 27.9473 40.096C28.2566 40.7893 28.4113 41.5573 28.4113 42.4C28.4113 43.232 28.2566 44.0053 27.9473 44.72C27.6379 45.424 27.2059 46.0373 26.6513 46.56C26.1073 47.072 25.4619 47.472 24.7153 47.76C23.9792 48.048 23.1739 48.192 22.2993 48.192ZM22.2833 45.984C22.7846 45.984 23.2433 45.8987 23.6593 45.728C24.0859 45.5573 24.4593 45.312 24.7793 44.992C25.0993 44.672 25.3446 44.2933 25.5153 43.856C25.6966 43.4187 25.7873 42.9333 25.7873 42.4C25.7873 41.8667 25.6966 41.3813 25.5153 40.944C25.3446 40.5067 25.0993 40.128 24.7793 39.808C24.4699 39.488 24.1019 39.2427 23.6753 39.072C23.2486 38.9013 22.7846 38.816 22.2833 38.816C21.7819 38.816 21.3179 38.9013 20.8913 39.072C20.4753 39.2427 20.1073 39.488 19.7873 39.808C19.4673 40.128 19.2166 40.5067 19.0353 40.944C18.8646 41.3813 18.7793 41.8667 18.7793 42.4C18.7793 42.9227 18.8646 43.408 19.0353 43.856C19.2166 44.2933 19.4619 44.672 19.7713 44.992C20.0913 45.312 20.4646 45.5573 20.8913 45.728C21.3179 45.8987 21.7819 45.984 22.2833 45.984ZM32.7593 41.84H38.1353V43.92H32.7593V41.84ZM32.9513 48H30.3593V36.8H38.8233V38.88H32.9513V48ZM42.978 41.84H48.354V43.92H42.978V41.84ZM43.17 48H40.578V36.8H49.042V38.88H43.17V48Z" fill="#0B0523"/>
</svg>
