<svg width="838" height="291" viewBox="0 0 838 291" fill="none" xmlns="http://www.w3.org/2000/svg">
<path fill-rule="evenodd" clip-rule="evenodd" d="M12.8329 110.636L46.4916 76.9776H70.879C72.431 76.9776 73.8843 77.2269 75.1393 77.7148C76.2426 78.1445 77.2181 78.7568 77.9863 79.5424C77.9863 79.6781 121.416 123.142 126.028 127.753C130.337 132.062 136.036 134.214 141.745 134.214C147.435 134.212 153.123 132.058 157.435 127.753C173.492 111.697 189.613 95.7014 205.568 79.5424C206.335 78.7568 207.311 78.1445 208.414 77.7148C209.67 77.2269 211.123 76.9776 212.674 76.9776H237.001L270.66 110.636C287.771 127.747 287.771 155.746 270.66 172.857L237.001 206.516H212.674C211.123 206.516 209.67 206.267 208.414 205.778C207.311 205.349 206.335 204.736 205.568 203.951C189.613 187.792 173.492 171.797 157.435 155.74C153.123 151.435 147.435 149.281 141.745 149.28C136.036 149.279 130.337 151.432 126.028 155.74C121.416 160.352 77.9863 203.816 77.9863 203.951C77.2181 204.736 76.2426 205.349 75.1393 205.778C73.8843 206.267 72.431 206.516 70.879 206.516H46.4916L12.8329 172.857C-4.27763 155.746 -4.27763 127.747 12.8329 110.636ZM61.5573 61.912L110.636 12.8334C127.747 -4.2778 155.746 -4.2778 172.857 12.8334L221.936 61.912H212.674C206.087 61.912 199.464 64.3039 194.812 69.0515C194.732 68.9742 150.877 113.067 146.827 117.116C145.424 118.509 143.582 119.207 141.745 119.207C139.92 119.207 138.084 118.506 136.68 117.102C132.224 112.647 88.7501 69.044 88.7415 69.0515C84.0893 64.3039 77.4671 61.912 70.879 61.912H61.5573ZM221.936 221.582L172.857 270.66C155.746 287.771 127.747 287.771 110.636 270.66L61.5573 221.582H70.879C77.4671 221.582 84.0893 219.19 88.7415 214.442C88.7501 214.449 132.224 170.847 136.68 166.391C138.084 164.988 139.92 164.286 141.745 164.286C143.582 164.286 145.424 164.984 146.827 166.377C150.877 170.426 194.732 214.519 194.812 214.442C199.464 219.19 206.087 221.582 212.674 221.582H221.936Z" fill="#32BCA9"/>
<path d="M736.761 127.753C732.449 132.058 726.761 134.212 721.071 134.214C715.381 134.212 709.693 132.058 705.38 127.753C689.323 111.696 673.203 95.7012 657.248 79.5422C656.48 78.7566 655.505 78.1443 654.401 77.7146C653.146 77.2267 651.693 76.9774 650.141 76.9774H612.579C608.419 76.9774 605.047 73.6047 605.047 69.4445C605.047 65.2845 608.419 61.9118 612.579 61.9118H650.141C656.729 61.9118 663.351 64.3037 668.004 69.0513C668.084 68.974 711.938 113.067 715.988 117.116C717.392 118.509 719.234 119.207 721.071 119.207C722.908 119.207 724.75 118.509 726.154 117.116C730.203 113.067 774.058 68.974 774.138 69.0513C778.791 64.3037 785.413 61.9118 792.001 61.9118H829.563C833.723 61.9118 837.095 65.2845 837.095 69.4445C837.095 73.6047 833.723 76.9774 829.563 76.9774H792.001C790.449 76.9774 788.996 77.2267 787.741 77.7146C786.637 78.1443 785.662 78.7566 784.894 79.5422C768.939 95.7012 752.819 111.696 736.761 127.753ZM521.198 76.9774C517.037 76.9774 513.665 73.6047 513.665 69.4445C513.665 65.2845 517.037 61.9118 521.198 61.9118C536.341 61.9118 550.104 68.1028 560.076 78.0755C570.05 88.0484 576.241 101.812 576.241 116.955V214.048C576.241 218.209 572.868 221.581 568.708 221.581C564.547 221.581 561.175 218.209 561.175 214.048V116.955C561.175 105.97 556.674 95.9761 549.425 88.727C542.176 81.4781 532.183 76.9774 521.198 76.9774ZM378.961 221.581C374.801 221.581 371.428 218.209 371.428 214.048C371.428 209.888 374.801 206.515 378.961 206.515H450.886C461.872 206.515 471.866 202.015 479.114 194.767C486.363 187.518 490.863 177.524 490.863 166.538V116.955C490.863 105.969 486.363 95.9752 479.114 88.7263C471.866 81.4778 461.872 76.9774 450.886 76.9774H378.961C367.975 76.9774 357.982 81.4771 350.733 88.727C343.484 95.9755 338.984 105.969 338.984 116.955V283.467C338.984 287.627 335.611 291 331.451 291C327.291 291 323.918 287.627 323.918 283.467V116.955C323.918 101.811 330.109 88.0478 340.082 78.0755C350.054 68.1022 363.818 61.9118 378.961 61.9118H450.886C466.03 61.9118 479.793 68.1022 489.766 78.0748C499.739 88.0474 505.929 101.811 505.929 116.955V166.538C505.929 181.682 499.739 195.446 489.766 205.418C479.793 215.391 466.03 221.581 450.886 221.581H378.961ZM829.563 221.581C833.723 221.581 837.095 218.209 837.095 214.048C837.095 209.888 833.723 206.515 829.563 206.515H792.001C790.449 206.515 788.996 206.266 787.741 205.778C786.637 205.349 785.662 204.736 784.894 203.951C768.939 187.792 752.819 171.797 736.761 155.74C732.449 151.435 726.761 149.281 721.071 149.28C715.381 149.281 709.693 151.435 705.38 155.74C689.323 171.797 673.203 187.792 657.248 203.951C656.48 204.736 655.505 205.349 654.401 205.778C653.146 206.266 651.693 206.515 650.141 206.515H612.579C608.419 206.515 605.047 209.888 605.047 214.048C605.047 218.209 608.419 221.581 612.579 221.581H650.141C656.729 221.581 663.351 219.189 668.004 214.441C668.084 214.519 711.938 170.426 715.988 166.377C717.392 164.984 719.234 164.286 721.071 164.286C722.908 164.286 724.75 164.984 726.154 166.377C730.203 170.426 774.058 214.519 774.138 214.441C778.791 219.189 785.413 221.581 792.001 221.581H829.563Z" fill="#606062"/>
<path d="M379.045 250.236C380.969 250.236 382.567 250.538 383.843 251.142C385.118 251.746 386.068 252.568 386.695 253.608C387.321 254.648 387.635 255.85 387.635 257.215C387.635 258.669 387.304 259.961 386.65 261.091C385.996 262.22 385.006 263.104 383.68 263.741C382.355 264.379 380.744 264.698 378.843 264.698H376.058V271.979H371.428V250.236H379.045ZM545.842 260.537C546.781 260.783 547.57 261.169 548.208 261.694C548.845 262.22 549.315 262.819 549.617 263.49C549.919 264.161 550.07 264.865 550.07 265.603C550.07 267.64 549.354 269.211 547.923 270.318C546.491 271.425 544.444 271.979 541.782 271.979H533.259V250.236H541.212C542.934 250.236 544.393 250.477 545.59 250.957C546.787 251.438 547.688 252.109 548.292 252.97C548.896 253.832 549.197 254.844 549.197 256.007C549.197 256.969 548.918 257.858 548.359 258.675C547.799 259.491 546.961 260.112 545.842 260.537ZM537.89 253.994V259.061H540.568C543.057 259.061 544.299 258.177 544.299 256.41C544.299 255.627 544.019 255.028 543.465 254.614C542.912 254.201 542.107 253.994 541.044 253.994H537.89ZM541.307 268.154C542.699 268.154 543.689 267.902 544.282 267.399C544.875 266.896 545.171 266.219 545.171 265.368C545.171 264.541 544.864 263.881 544.248 263.389C543.633 262.897 542.699 262.651 541.447 262.651H537.89V268.154H541.307ZM570.941 250.236V250.504L562.888 262.919V271.979H558.257V263.054L550.405 250.504V250.236H555.774L560.673 258.625L565.773 250.236H570.941ZM378.385 260.872C379.777 260.872 380.851 260.61 381.606 260.084C382.361 259.558 382.736 258.647 382.736 257.349C382.736 256.253 382.4 255.431 381.723 254.883C381.052 254.335 380.113 254.061 378.899 254.061H376.058V260.872H378.385ZM400.452 272.448C398.126 272.448 396.151 271.968 394.53 271.006C392.908 270.044 391.683 268.708 390.855 266.996C390.028 265.285 389.614 263.299 389.614 261.04C389.614 258.535 390.117 256.438 391.124 254.749C392.13 253.06 393.467 251.807 395.133 250.991C396.8 250.174 398.651 249.766 400.687 249.766C403.013 249.766 404.988 250.247 406.609 251.209C408.231 252.171 409.45 253.507 410.267 255.219C411.083 256.93 411.491 258.915 411.491 261.175C411.491 263.68 410.993 265.777 409.998 267.466C409.003 269.155 407.672 270.408 406.005 271.224C404.339 272.04 402.488 272.448 400.452 272.448ZM400.452 268.556C401.772 268.556 402.896 268.26 403.824 267.667C404.753 267.075 405.446 266.224 405.905 265.117C406.363 264.01 406.593 262.707 406.593 261.208C406.593 258.837 406.089 256.986 405.082 255.655C404.076 254.324 402.61 253.658 400.687 253.658C398.673 253.658 397.141 254.313 396.09 255.622C395.039 256.93 394.513 258.725 394.513 261.007C394.513 263.378 395.016 265.229 396.023 266.56C397.029 267.891 398.506 268.556 400.452 268.556ZM442.731 250.236V250.504L437.16 271.979H431.255L428.571 260.067C428.257 258.748 427.978 257.148 427.732 255.269C427.486 257.148 427.206 258.748 426.893 260.067L424.276 271.979H418.37L412.767 250.504V250.236H417.632L420.417 262.013C420.574 262.64 420.741 263.467 420.92 264.496C421.099 265.525 421.256 266.543 421.39 267.55C421.748 265.246 422.083 263.401 422.396 262.013L425.148 250.236H430.55L433.234 261.778C433.637 263.59 433.995 265.525 434.308 267.583C434.443 266.644 434.604 265.648 434.795 264.597C434.985 263.546 435.169 262.606 435.349 261.778L437.932 250.236H442.731ZM450.28 268.086H460.346V271.979H445.65V250.236H460.179V254.095H450.28V258.994H458.836L458.294 262.819H450.28V268.086ZM481.452 271.71V271.979H476.128L470.664 264.06H468.836V271.979H464.205V250.236H471.487C473.41 250.236 475.015 250.532 476.302 251.125C477.588 251.718 478.544 252.523 479.17 253.541C479.797 254.559 480.11 255.716 480.11 257.014C480.11 258.535 479.73 259.849 478.969 260.956C478.208 262.064 477.09 262.886 475.614 263.423L481.452 271.71ZM468.836 260.47H470.927C472.297 260.47 473.354 260.213 474.098 259.698C474.842 259.184 475.211 258.334 475.211 257.148C475.211 256.119 474.881 255.347 474.216 254.833C473.556 254.318 472.627 254.061 471.442 254.061H468.836V260.47ZM489.001 268.086H499.068V271.979H484.371V250.236H498.9V254.095H489.001V258.994H497.558L497.016 262.819H489.001V268.086ZM510.174 250.236C513.932 250.236 516.852 251.058 518.932 252.702C521.012 254.347 522.052 257.148 522.052 261.107C522.052 263.523 521.504 265.548 520.408 267.181C519.312 268.814 517.853 270.022 516.03 270.804C514.207 271.587 512.199 271.979 510.007 271.979H502.927V250.236H510.174ZM509.101 267.885C511.013 267.885 512.54 267.701 513.686 267.332C514.833 266.963 515.694 266.286 516.276 265.302C516.863 264.317 517.154 262.919 517.154 261.107C517.154 259.43 516.891 258.099 516.365 257.114C515.84 256.13 515.062 255.42 514.039 254.984C513.01 254.548 511.712 254.329 510.146 254.329H507.557V267.885H509.101Z" fill="#606062"/>
<path d="M707.908 272.448C704.262 272.448 701.594 271.436 699.905 269.412C698.216 267.387 697.371 264.675 697.371 261.275C697.371 258.523 697.842 256.292 698.781 254.581C699.72 252.869 700.967 251.639 702.522 250.89C704.077 250.141 705.828 249.765 707.773 249.765C709.138 249.765 710.39 249.928 711.531 250.252C712.672 250.577 713.813 251.074 714.954 251.746L713.165 255.269C711.57 254.239 709.837 253.725 707.969 253.725C704.172 253.725 702.27 256.152 702.27 261.006C702.27 263.422 702.802 265.257 703.859 266.509C704.916 267.762 706.409 268.389 708.344 268.389C709.334 268.389 710.195 268.26 710.939 268.002C711.682 267.745 712.46 267.381 713.265 266.912L715.122 270.267C713.914 270.983 712.734 271.525 711.582 271.895C710.43 272.264 709.205 272.448 707.908 272.448ZM593.857 260.536C594.797 260.783 595.585 261.168 596.223 261.694C596.86 262.22 597.331 262.818 597.632 263.489C597.935 264.16 598.085 264.865 598.085 265.603C598.085 267.639 597.37 269.211 595.938 270.318C594.506 271.425 592.46 271.979 589.798 271.979H581.275V250.236H589.227C590.95 250.236 592.409 250.476 593.606 250.957C594.802 251.438 595.703 252.109 596.307 252.97C596.911 253.831 597.213 254.844 597.213 256.007C597.213 256.969 596.933 257.858 596.374 258.674C595.815 259.491 594.976 260.112 593.857 260.536ZM585.905 253.994V259.06H588.584C591.073 259.06 592.314 258.177 592.314 256.409C592.314 255.627 592.034 255.028 591.481 254.614C590.927 254.2 590.122 253.994 589.059 253.994H585.905ZM589.322 268.153C590.714 268.153 591.704 267.902 592.297 267.398C592.89 266.895 593.186 266.218 593.186 265.368C593.186 264.541 592.879 263.881 592.264 263.389C591.649 262.896 590.715 262.65 589.462 262.65H585.905V268.153H589.322ZM613.017 250.236L620.835 271.71V271.979H615.769L614.023 266.778H605.971L604.259 271.979H599.26V271.71L607.078 250.236H613.017ZM607.246 262.953H612.748L609.964 254.664L607.246 262.953ZM642.947 250.236V271.979H637.78L630.946 261.845C630.359 260.95 629.867 260.173 629.464 259.513C629.061 258.853 628.664 258.109 628.284 257.282V271.979H623.654V250.236H628.754L636.197 261.375C636.287 261.51 636.488 261.817 636.801 262.298C637.114 262.779 637.4 263.232 637.662 263.657C637.919 264.082 638.138 264.496 638.317 264.899V250.236H642.947ZM657.106 272.448C653.461 272.448 650.793 271.436 649.104 269.412C647.415 267.387 646.57 264.675 646.57 261.275C646.57 258.523 647.041 256.292 647.98 254.581C648.919 252.869 650.166 251.639 651.721 250.89C653.276 250.141 655.027 249.765 656.973 249.765C658.337 249.765 659.59 249.928 660.73 250.252C661.872 250.577 663.012 251.074 664.153 251.746L662.363 255.269C660.77 254.239 659.036 253.725 657.168 253.725C653.371 253.725 651.47 256.152 651.47 261.006C651.47 263.422 652.001 265.257 653.058 266.509C654.115 267.762 655.608 268.389 657.543 268.389C658.533 268.389 659.394 268.26 660.138 268.002C660.882 267.745 661.659 267.381 662.464 266.912L664.321 270.267C663.113 270.983 661.933 271.525 660.781 271.895C659.629 272.264 658.404 272.448 657.106 272.448ZM676.299 272.448C673.973 272.448 671.999 271.968 670.377 271.005C668.756 270.044 667.53 268.707 666.703 266.996C665.875 265.284 665.462 263.299 665.462 261.04C665.462 258.534 665.965 256.438 666.972 254.748C667.978 253.059 669.315 251.807 670.981 250.991C672.648 250.174 674.499 249.765 676.534 249.765C678.861 249.765 680.835 250.247 682.457 251.209C684.078 252.171 685.298 253.507 686.114 255.218C686.931 256.929 687.339 258.915 687.339 261.175C687.339 263.679 686.841 265.777 685.846 267.465C684.85 269.154 683.52 270.407 681.853 271.224C680.186 272.04 678.335 272.448 676.299 272.448ZM676.299 268.556C677.619 268.556 678.744 268.26 679.672 267.667C680.6 267.074 681.294 266.224 681.752 265.116C682.211 264.009 682.44 262.707 682.44 261.207C682.44 258.837 681.937 256.986 680.93 255.655C679.923 254.323 678.458 253.658 676.534 253.658C674.521 253.658 672.989 254.313 671.937 255.621C670.886 256.929 670.361 258.725 670.361 261.006C670.361 263.377 670.864 265.228 671.871 266.56C672.877 267.891 674.353 268.556 676.299 268.556ZM722.537 268.086H732.604V271.979H717.907V250.236H732.436V254.095H722.537V258.993H731.093L730.551 262.818H722.537V268.086ZM755.756 250.236V271.979H750.588L743.755 261.845C743.168 260.95 742.676 260.173 742.273 259.513C741.87 258.853 741.473 258.109 741.093 257.282V271.979H736.462V250.236H741.562L749.006 261.375C749.095 261.51 749.297 261.817 749.61 262.298C749.923 262.779 750.208 263.232 750.471 263.657C750.728 264.082 750.947 264.496 751.126 264.899V250.236H755.756ZM777.063 250.236V254.295H770.151V271.979H765.52V254.295H758.575V250.236H777.063ZM797.128 271.71V271.979H791.804L786.34 264.06H784.511V271.979H779.881V250.236H787.162C789.086 250.236 790.691 250.532 791.977 251.125C793.263 251.718 794.22 252.522 794.846 253.54C795.473 254.558 795.785 255.716 795.785 257.014C795.785 258.534 795.405 259.849 794.645 260.956C793.884 262.063 792.766 262.885 791.289 263.422L797.128 271.71ZM784.511 260.469H786.603C787.973 260.469 789.03 260.212 789.774 259.698C790.518 259.183 790.887 258.334 790.887 257.148C790.887 256.119 790.557 255.347 789.891 254.833C789.231 254.318 788.303 254.061 787.118 254.061H784.511V260.469ZM811.825 250.236L819.643 271.71V271.979H814.576L812.831 266.778H804.778L803.067 271.979H798.067V271.71L805.885 250.236H811.825ZM806.053 262.953H811.556L808.771 254.664L806.053 262.953ZM827.091 267.885H837.09V271.979H822.461V250.236H827.091V267.885Z" fill="#32BCA9"/>
<path fill-rule="evenodd" clip-rule="evenodd" d="M548.235 13.0787C553.232 8.08183 554.799 6.51432 559.797 1.51713C561.82 -0.505711 565.129 -0.505711 567.152 1.51713C572.149 6.51399 573.717 8.08183 578.714 13.0787C580.737 15.1015 580.737 18.4114 578.714 20.4342C573.717 25.4314 572.149 26.9989 567.152 31.9957C565.129 34.0186 561.82 34.0186 559.797 31.9957C554.8 26.9989 553.232 25.4311 548.235 20.4342C546.212 18.4114 546.212 15.1015 548.235 13.0787Z" fill="#32BCA9"/>
</svg>
