<svg width="902" height="291" viewBox="0 0 902 291" fill="none" xmlns="http://www.w3.org/2000/svg">
<path d="M342.116 5.14348L224.149 286.598H147.185L89.1331 61.9844C85.6087 48.1496 82.5442 43.0812 71.8255 37.2526C54.3255 27.7588 25.4264 18.8516 0 13.3233L1.727 5.14348H125.616C141.408 5.14348 155.604 15.6557 159.189 33.8408L189.848 196.705L265.621 5.13878H342.116V5.14348ZM643.675 194.706C643.985 120.421 540.956 116.329 541.664 83.1449C541.885 73.0457 551.501 62.3082 572.548 59.5675C582.981 58.2019 611.725 57.1601 644.327 72.1634L657.115 12.4785C639.597 6.11958 617.056 0 589.011 0C517.045 0 466.399 38.2569 465.972 93.0376C465.507 133.556 502.121 156.167 529.707 169.631C558.085 183.419 567.607 192.279 567.499 204.612C567.297 223.492 544.865 231.827 523.901 232.155C487.306 232.718 466.07 222.253 449.143 214.383L435.946 276.044C452.958 283.848 484.359 290.657 516.914 291C593.404 291 643.44 253.217 643.675 194.706ZM833.711 286.598H901.05L842.271 5.14348H780.117C766.142 5.14348 754.353 13.281 749.135 25.7924L639.878 286.598H716.331L731.508 244.559H824.921L833.711 286.598ZM752.471 186.873L790.794 81.1973L812.851 186.873H752.471ZM446.144 5.14348L385.938 286.598H313.132L373.361 5.14348H446.144Z" fill="#1434CB"/>
</svg>
